<?xml version="1.0" encoding="UTF-8" standalone="no"?>
<!-- Created with Inkscape (http://www.inkscape.org/) -->

<svg
   width="210mm"
   height="297mm"
   viewBox="0 0 210 297"
   version="1.1"
   id="svg38435"
   inkscape:version="1.1.1 (3bf5ae0d25, 2021-09-20)"
   sodipodi:docname="Logo.svg"
   xmlns:inkscape="http://www.inkscape.org/namespaces/inkscape"
   xmlns:sodipodi="http://sodipodi.sourceforge.net/DTD/sodipodi-0.dtd"
   xmlns="http://www.w3.org/2000/svg"
   xmlns:svg="http://www.w3.org/2000/svg"
   xmlns:rdf="http://www.w3.org/1999/02/22-rdf-syntax-ns#"
   xmlns:cc="http://creativecommons.org/ns#"
   xmlns:dc="http://purl.org/dc/elements/1.1/">
  <title
     id="title38760">Draft Logo</title>
  <sodipodi:namedview
     id="namedview38437"
     pagecolor="#505050"
     bordercolor="#ffffff"
     borderopacity="1"
     inkscape:pageshadow="0"
     inkscape:pageopacity="0"
     inkscape:pagecheckerboard="1"
     inkscape:document-units="mm"
     showgrid="false"
     inkscape:zoom="0.32026164"
     inkscape:cx="1206.8258"
     inkscape:cy="791.54031"
     inkscape:window-width="1920"
     inkscape:window-height="1017"
     inkscape:window-x="-8"
     inkscape:window-y="-8"
     inkscape:window-maximized="1"
     inkscape:current-layer="layer1" />
  <defs
     id="defs38432" />
  <g
     inkscape:label="Layer 1"
     inkscape:groupmode="layer"
     id="layer1">
    <g
       id="g38756"
       transform="matrix(0.16618943,0,0,0.16618943,-31.930704,170.05973)">
      <path
         id="path34110"
         style="color:#000000;fill:#003da5;fill-opacity:1;stroke-width:1;-inkscape-stroke:none"
         d="m 447.33367,151.28151 v 178.6332 h 54.732 291.22714 l 5.4949,-36.1297 c -0.6935,1.0322 -1.3804,2.1215 -2.1037,2.9041 -4.2117,4.5297 -8.5985,6.794 -13.1609,6.794 -5.3523,0 -9.30044,-1.9587 -11.84494,-5.8762 -2.4567,-4.0399 -3.6851,-8.9976 -3.6851,-14.874 0,-2.5707 0.2193,-5.4475 0.658,-8.6305 0.4387,-3.3052 0.8776,-6.4881 1.316,-9.5488 0.5266,-3.0604 0.8774,-5.0191 1.0528,-5.8761 0.702,-4.2847 1.3605,-8.5082 1.9746,-12.6704 0.6141,-4.1624 0.9213,-7.529 0.9213,-10.0997 0,-6.2433 -1.5796,-9.3654 -4.7382,-9.3654 -2.2812,0 -4.2992,1.5914 -6.0539,4.7744 -1.755,3.0607 -3.1589,7.1006 -4.2116,12.1197 l -8.9498,58.9452 h -18.9514 l 9.6073,-63.3521 c 0.2633,-1.4692 0.3953,-2.9995 0.3953,-4.591 0,-5.3864 -1.3163,-8.0796 -3.9486,-8.0796 -2.4567,0 -4.6062,1.5915 -6.4487,4.7744 -1.7547,3.0605 -3.1589,7.1615 -4.2116,12.3031 l -8.9493,58.9452 h -18.9519 l 1.4666,-9.6514 c -0.98,1.448 -1.9904,2.7313 -3.0459,3.7753 -4.7378,4.6519 -9.5197,6.9779 -14.3454,6.9779 -3.6848,0 -6.6686,-1.4079 -8.9498,-4.2236 -2.1934,-2.9379 -3.5094,-7.1615 -3.9481,-12.6703 -2.5445,5.0191 -5.3959,9.1207 -8.5545,12.3036 -3.0708,3.0604 -6.7561,4.5903 -11.0556,4.5903 -5.0012,0 -9.1686,-2.3868 -12.5026,-7.1612 -1.5926,-2.2805 -2.7792,-5.2163 -3.6111,-8.7257 -1.7219,3.8798 -3.5343,6.999 -5.4694,9.0929 -4.2117,4.5297 -8.599,6.794 -13.1615,6.794 -5.3522,0 -9.3003,-1.9587 -11.8448,-5.8762 -2.4567,-4.0399 -3.6852,-8.9976 -3.6852,-14.874 0,-2.5707 0.2194,-5.4475 0.6581,-8.6305 0.4386,-3.3052 0.8778,-6.4881 1.3165,-9.5488 0.5265,-3.0604 0.8771,-5.0191 1.0528,-5.8761 0.7019,-4.2847 1.36,-8.5082 1.9741,-12.6704 0.6141,-4.1624 0.9212,-7.529 0.9212,-10.0997 0,-6.2433 -1.5795,-9.3654 -4.7381,-9.3654 -2.2813,0 -4.2992,1.5914 -6.054,4.7744 -1.7547,3.0607 -3.1586,7.1006 -4.2116,12.1197 l -8.9493,58.9452 h -18.9518 l 2.7181,-17.785 c -1.2343,2.0844 -2.5482,4.0722 -4.0344,5.8494 -4.2992,5.1417 -8.9053,8.9363 -13.8187,11.3848 -4.9135,2.3259 -9.5636,3.4893 -13.9506,3.4893 -9.9145,0 -17.1969,-3.4893 -21.8472,-10.4672 -4.6503,-6.9778 -6.9752,-18.5465 -6.9752,-34.7059 0,-12.854 1.5353,-26.688 4.6064,-41.5007 3.1586,-14.813 8.1595,-27.4836 15.0032,-38.0116 6.9313,-10.6508 15.7054,-15.9758 26.3218,-15.9758 6.5807,0 11.8888,2.0201 15.9247,6.06 4.036,4.0399 6.0545,10.2222 6.0545,18.5468 0,5.2638 -0.7462,9.426 -2.2376,12.4864 -1.4917,2.9382 -3.8169,4.4075 -6.9755,4.4075 -3.1586,0 -5.6589,-1.5915 -7.5012,-4.7744 1.5793,-1.1018 2.9827,-3.3055 4.2111,-6.6109 1.2282,-3.3055 1.8428,-6.7329 1.8428,-10.2831 0,-3.3054 -0.6582,-5.9991 -1.974,-8.0801 -1.2287,-2.0812 -3.247,-3.1218 -6.0545,-3.1218 -4.6503,0 -9.0813,4.4686 -13.2926,13.4054 -4.2114,8.8143 -7.6333,19.9543 -10.2656,33.4206 -2.5445,13.4662 -3.8164,26.4427 -3.8164,38.9294 0,9.3041 1.1407,16.4047 3.4219,21.3017 2.2812,4.8969 6.4045,7.3453 12.3709,7.3453 5.1765,0 9.9589,-1.5915 14.3459,-4.7744 4.1826,-3.0348 7.7891,-7.3319 10.8551,-12.8148 l 14.1507,-92.5896 19.4778,-3.6727 -7.1069,46.2751 c 4.387,-6.8554 9.5199,-10.2836 15.3984,-10.2836 4.4749,0 8.0283,1.714 10.6604,5.1419 2.632,3.4277 3.9481,8.631 3.9481,15.6089 0,3.5501 -0.3069,7.5284 -0.921,11.9356 -0.6141,4.2846 -1.4917,9.5488 -2.6324,15.7924 -0.7019,3.7949 -1.3599,7.5287 -1.974,11.2014 -0.5263,3.5502 -0.7895,6.3659 -0.7895,8.4469 0,2.4484 0.3947,4.346 1.1842,5.6927 0.7898,1.3468 2.1498,2.0201 4.0799,2.0201 2.6323,0 4.7382,-1.2859 6.3175,-3.8565 1.0194,-1.7384 2.0386,-4.2805 3.0578,-7.1914 0,-0.2482 -0.031,-0.453 -0.031,-0.7043 0,-9.0591 1.2724,-18.5468 3.8166,-28.4629 2.6324,-10.0385 6.4932,-18.4856 11.5819,-25.3412 5.1768,-6.9779 11.3183,-10.4669 18.4253,-10.4669 3.5973,0 6.273,0.8569 8.0277,2.5709 1.755,1.7137 2.6326,3.9786 2.6326,6.7943 v 1.2853 l 1.4473,-9.7322 h 18.9518 l -9.4757,62.4343 c -0.3511,1.8365 -0.5263,3.7949 -0.5263,5.8761 0,5.2642 1.7989,7.8962 5.3962,7.8962 2.4569,0 4.5627,-1.5914 6.3174,-4.7744 1.8346,-3.1694 3.275,-7.3162 4.3268,-12.4277 l 8.9654,-59.0045 h 18.9518 l -1.4481,9.5486 c 4.4749,-6.9779 9.8272,-10.4669 16.0565,-10.4669 7.7211,0 12.2397,5.2641 13.5557,15.7921 4.8257,-10.4055 10.9239,-15.6088 18.29414,-15.6088 4.4746,0 8.028,1.714 10.6603,5.1419 2.6321,3.4277 3.9481,8.631 3.9481,15.6089 0,3.5501 -0.3069,7.5284 -0.921,11.9356 -0.6141,4.2846 -1.4917,9.5488 -2.6323,15.7924 -0.702,3.7949 -1.36,7.5287 -1.9741,11.2014 -0.5265,3.5502 -0.79,6.3659 -0.79,8.4469 0,2.4484 0.3953,4.346 1.1848,5.6927 0.7898,1.3468 2.1497,2.0201 4.0799,2.0201 2.6323,0 4.7381,-1.2859 6.3174,-3.8565 1.5793,-2.6935 3.1586,-6.7943 4.7379,-12.3032 v 0 l 9.9978,-65.7397 h 18.9513 l -2.1058,13.7724 c 4.3871,-5.2642 9.5202,-7.8962 15.3985,-7.8962 4.9136,0 8.8183,2.2648 11.7136,6.7945 2.8954,4.5294 4.3429,11.9358 4.3429,22.2191 0,9.6714 -1.0091,19.4646 -3.0271,29.3807 -2.0182,9.7935 -5.4401,18.1798 -10.2656,25.1576 -4.8257,6.8557 -11.1866,10.2831 -19.083,10.2831 -5.6156,0 -9.3443,-2.2032 -11.1869,-6.6104 l -5.0474,33.042 h 95.637 c 0.1109,-6.7072 2.0892,-12.1682 6.0111,-16.332 4.0362,-4.1621 9.1691,-7.6509 15.3985,-10.4666 l 1.5793,-9.7327 c -4.4746,6.7331 -9.7388,10.0997 -15.793,10.0997 -5.0009,0 -9.1689,-2.3868 -12.5029,-7.1612 -1.6875,-2.4165 -2.9406,-5.5349 -3.774,-9.3314 -1.9706,4.0569 -4.1211,7.2906 -6.4915,9.5147 -5.089,4.6519 -10.1339,6.9779 -15.135,6.9779 -4.2116,0 -7.6335,-1.836 -10.2656,-5.5087 -2.5445,-3.6726 -3.8169,-9.1815 -3.8169,-16.5266 0,-3.0605 0.3514,-7.0395 1.0534,-11.9362 l 8.9492,-58.9452 h 18.9519 l -9.4761,62.4343 c -0.3508,1.8365 -0.5265,3.7949 -0.5265,5.8761 0,2.4485 0.3947,4.2236 1.1845,5.3253 0.8774,0.9795 2.2813,1.4692 4.2114,1.4692 2.5445,0 4.9133,-1.4695 7.1067,-4.4074 1.2287,-1.7145 2.2439,-3.7269 3.0872,-5.9791 -0.01,-0.4752 -0.06,-0.8781 -0.06,-1.3657 0,-9.0591 1.2721,-18.5468 3.8164,-28.4629 2.6323,-10.0385 6.4934,-18.4856 11.5821,-25.3412 5.1768,-6.9779 11.3186,-10.4669 18.4253,-10.4669 3.5973,0 6.273,0.8569 8.028,2.5709 1.7547,1.7137 2.6323,3.9786 2.6323,6.7943 v 1.1017 l 1.4481,-9.5486 h 18.9513 l -13.0291,85.2046 c 4.2113,-1.9587 7.5893,-4.8972 10.1335,-8.8146 2.5374,-3.9063 4.6808,-9.7036 6.4328,-17.3834 l 8.966,-59.0066 h 18.9518 l -1.4481,9.5486 c 4.3871,-6.8554 9.51999,-10.2836 15.39849,-10.2836 4.4749,0 8.0283,1.714 10.6603,5.1419 2.6321,3.4277 3.9482,8.631 3.9482,15.6089 0,3.5501 -0.307,7.5284 -0.9208,11.9356 -0.6144,4.2846 -1.492,9.5488 -2.6326,15.7924 -0.7019,3.7949 -1.36,7.5287 -1.9741,11.2014 -0.5262,3.5502 -0.7895,6.3659 -0.7895,8.4469 0,2.4484 0.3948,4.346 1.1846,5.6927 0.7895,1.3468 2.1494,2.0201 4.0798,2.0201 2.6321,0 4.7382,-1.2859 6.3172,-3.8565 0.9801,-1.6712 1.9598,-4.0765 2.9396,-6.8313 0,-0.3093 -0.044,-0.5662 -0.044,-0.8811 0,-8.3246 1.2285,-17.5675 3.6851,-27.7286 2.4567,-10.1608 6.4051,-18.9135 11.8446,-26.2588 5.4399,-7.4676 12.2836,-11.2014 20.5312,-11.2014 11.2307,0 16.8465,9.7935 16.8465,29.3806 v 0.1842 c 0.2633,0.1222 0.7456,0.1833 1.4473,0.1833 2.8956,0 6.2299,-1.0406 10.0026,-3.1218 0.1624,-0.095 0.3034,-0.2156 0.4646,-0.3119 l 3.747,-24.6616 h 18.9518 l -1.448,9.5486 c 4.387,-6.8554 9.5202,-10.2836 15.3987,-10.2836 4.4747,0 8.028,1.714 10.6603,5.1419 2.6321,3.4277 3.9479,8.631 3.9479,15.6089 0,3.5501 -0.3069,7.5284 -0.9213,11.9356 -0.6141,4.2846 -1.4912,9.5488 -2.6318,15.7924 -0.7019,3.7949 -1.3605,7.5287 -1.9746,11.2014 -0.5265,3.5502 -0.7898,6.3659 -0.7898,8.4469 0,2.4484 0.3953,4.346 1.1851,5.6927 0.7898,1.3468 2.1497,2.0201 4.0799,2.0201 2.1055,0 3.5531,-0.3672 4.3429,-1.1017 -0.5266,6.2434 -2.1495,10.9561 -4.8694,14.1391 -2.6324,3.1829 -5.8349,4.7744 -9.6079,4.7744 -4.65,0 -8.0279,-1.9587 -10.1338,-5.8762 -2.1055,-3.9174 -3.1583,-8.8754 -3.1583,-14.874 0,-2.5707 0.2193,-5.4475 0.6578,-8.6305 0.4389,-3.3052 0.8776,-6.4881 1.3163,-9.5488 0.5262,-3.0604 0.8771,-5.0191 1.0525,-5.8761 0.7019,-4.2847 1.3599,-8.5082 1.974,-12.6704 0.6144,-4.1624 0.9216,-7.529 0.9216,-10.0997 0,-6.2433 -1.5791,-9.3654 -4.7379,-9.3654 -2.281,0 -4.299,1.5914 -6.0537,4.7744 -1.755,3.0607 -3.1588,7.1006 -4.2116,12.1197 l -8.9501,58.9452 h -18.9516 l 8.9255,-58.7417 c -3.4179,1.8833 -7.085,3.3025 -11.0307,4.2034 -0.7022,11.1403 -2.5009,20.8728 -5.3962,29.1973 -2.8954,8.3246 -6.6244,14.7519 -11.1869,19.2816 -4.5624,4.5294 -9.5199,6.7942 -14.8719,6.7942 -6.4929,0 -11.6253,-2.3257 -15.3983,-6.9779 -1.8124,-2.2349 -3.1644,-5.1279 -4.106,-8.6061 -1.7309,3.9138 -3.5547,7.0507 -5.5015,9.157 -4.2116,4.5297 -8.5987,6.794 -13.1609,6.794 -5.3523,0 -9.3004,-1.9587 -11.8449,-5.8762 -2.45659,-4.0399 -3.68509,-8.9976 -3.68509,-14.874 0,-2.5707 0.2196,-5.4475 0.6586,-8.6305 0.4384,-3.3052 0.8768,-6.4881 1.3155,-9.5488 0.52649,-3.0604 0.87789,-5.0191 1.05329,-5.8761 0.7019,-4.2847 1.3594,-8.5082 1.9735,-12.6704 0.6141,-4.1624 0.9213,-7.529 0.9213,-10.0997 0,-6.2433 -1.5791,-9.3654 -4.73769,-9.3654 -2.2812,0 -4.2992,1.5914 -6.0539,4.7744 -1.7547,3.0607 -3.1588,7.1006 -4.2116,12.1197 l -8.9493,58.9452 h -18.9518 l 1.466,-9.6485 c -0.1878,0.2572 -0.3535,0.5905 -0.545,0.8347 -4.036,5.0192 -8.5982,8.4466 -13.6872,10.2831 l -1.9746,13.2215 c -0.7374,4.9911 -1.7512,9.1707 -2.9382,12.8426 h 209.42169 54.8206 v -178.6332 z m 495.91964,178.6332 h -19.5336 c -1.3732,2.686 -2.7879,4.0513 -4.2447,4.0513 -1.4039,0 -2.5006,-0.6117 -3.2904,-1.836 -0.4371,-0.6778 -0.7241,-1.425 -0.9194,-2.2153 h -7.4605 c 0,0.1947 -0.043,0.3651 -0.043,0.5622 0,5.7536 1.4041,10.1608 4.2116,13.2212 2.8075,3.0607 6.3169,4.5911 10.5286,4.5911 5.4398,0 10.3097,-2.2648 14.6089,-6.7945 2.4922,-2.5548 4.5051,-6.5159 6.1423,-11.58 z m -27.9881,0 h 8.4545 c 0.032,-0.064 0.066,-0.1066 0.099,-0.1723 1.4036,-2.8157 2.5003,-6.8556 3.2901,-12.1195 l 0.7898,-5.3252 c -8.5985,4.4071 -12.8977,9.6102 -12.8977,15.6088 0,0.7104 0.1074,1.3708 0.2646,2.0082 z m -103.0975,0 h -18.8749 l -2.7945,18.3745 19.8726,-6.6104 z m 73.8788,-158.4619 c 2.8953,0 5.3522,1.469 7.3699,4.4072 2.1061,2.8157 3.1592,6.2436 3.1592,10.2835 0,4.04 -1.0531,7.4674 -3.1592,10.2831 -2.0177,2.8157 -4.4746,4.2235 -7.3699,4.2235 -2.8954,0 -5.352,-1.4078 -7.3703,-4.2235 -2.018,-2.8157 -3.0271,-6.2431 -3.0271,-10.2831 0,-4.0399 1.0091,-7.4678 3.0271,-10.2835 2.0183,-2.9382 4.4749,-4.4072 7.3703,-4.4072 z m 181.62079,48.6622 c -2.8951,0 -5.7028,2.9384 -8.4227,8.8146 -2.72,5.8761 -4.9134,12.9148 -6.5805,21.1169 -1.6671,8.2023 -2.5006,15.4252 -2.5006,21.6686 0,5.8761 0.4824,9.8549 1.4476,11.9361 0.9652,1.9587 2.7199,2.938 5.2641,2.938 2.1058,0 4.2119,-1.6526 6.3175,-4.9581 2.1058,-3.4276 3.9483,-8.0184 5.5279,-13.7721 1.5793,-5.8764 2.7197,-12.3647 3.4213,-19.4651 -2.3688,-0.7345 -3.5531,-3.3049 -3.5531,-7.7121 0,-5.0194 1.36,-8.3248 4.0799,-9.9163 -0.1757,-4.0399 -0.6143,-6.7945 -1.3163,-8.2635 -0.7019,-1.5914 -1.9301,-2.387 -3.6851,-2.387 z m -397.19703,0.9183 c -3.5094,0 -6.6683,2.8769 -9.4758,8.6305 -2.8075,5.6314 -5.0009,12.487 -6.5804,20.5668 -1.5793,7.9574 -2.3688,14.9966 -2.3688,21.1175 0,6.1211 0.6138,10.0383 1.8423,11.7523 1.316,1.7139 2.8956,2.5709 4.7381,2.5709 2.1934,0 4.3429,-1.4078 6.4487,-4.2235 2.1934,-2.9382 3.6851,-6.917 4.4746,-11.9362 l 6.3175,-41.5004 c 0,-1.5915 -0.439,-3.1218 -1.3163,-4.5908 -0.8774,-1.5915 -2.2371,-2.3871 -4.0799,-2.3871 z m 264.92974,0 c -3.5095,0 -6.668,2.8769 -9.4758,8.6305 -2.8078,5.6314 -5.0014,12.487 -6.5805,20.5668 -1.5795,7.9574 -2.3696,14.9966 -2.3696,21.1175 0,6.1211 0.6144,10.0383 1.8429,11.7523 1.316,1.7139 2.8956,2.5709 4.7384,2.5709 2.018,0 4.0793,-1.2859 6.1849,-3.8565 2.1061,-2.571 3.5539,-6.0595 4.3434,-10.4667 l 6.7125,-43.5208 c 0,-1.4689 -0.439,-2.9379 -1.3163,-4.4069 -0.8774,-1.5915 -2.2374,-2.3871 -4.0799,-2.3871 z m -99.2333,1.8363 c -1.5791,0 -3.2023,0.7958 -4.8694,2.3873 -1.5793,1.5915 -2.9832,3.7946 -4.2116,6.6103 l -7.765,51.4165 c 0.7019,2.8157 2.369,4.2236 5.0014,4.2236 4.2114,0 7.6769,-2.7541 10.3968,-8.263 2.8077,-5.5089 4.826,-12.0589 6.0544,-19.649 1.3161,-7.7123 1.9741,-14.8738 1.9741,-21.4844 0,-10.1608 -2.1937,-15.2413 -6.5807,-15.2413 z" />
      <path
         id="path47808"
         style="color:#000000;fill:#003da5;stroke-width:1;-inkscape-stroke:none"
         d="m 831.90851,-884.30922 c -4.3979,0.01 -8.8032,0.082 -13.2146,0.2255 -209.89644,4.7238 -385.50354,158.66003 -472.28134,338.01553 -113.3469,229.99433 -122.4761,512.511109 -20.8261,748.24375 h 21.8334 c -102.7409,-231.780831 -95.0926,-512.32143 16.8915,-739.50005 l 0.016,-0.031 0.016,-0.033 c 84.1338,-173.891 254.4474,-322.28443 454.83204,-326.77553 h 0.051 0.053 c 8.4276,-0.2754 16.8352,-0.2852 25.2167,-0.037 h 0.01 c 125.7019,3.7171 245.31529,65.3134 331.95279,155.31813 205.0431,215.4838 255.6595,546.96515 169.9649,825.80846 l -0.011,0.0212 -0.01,0.0212 c -8.6887,28.72343 -19.2638,57.2487 -31.5373,85.21251 h 21.7498 c 11.1109,-26.13448 20.7724,-52.69627 28.8523,-79.40199 87.6408,-285.17637 36.3569,-623.72868 -174.5779,-845.40058 l -0.018,-0.018 -0.019,-0.021 c -89.839,-93.34793 -214.00499,-157.60333 -345.76799,-161.45883 -4.3818,-0.1283 -8.772,-0.1894 -13.1699,-0.1826 z M 329.03427,210.11306 c 0.8279,1.86505 1.6838,3.71793 2.5254,5.57689 l 59.4194,87.02675 -7.0126,10.27059 c 17.8094,28.15087 37.4534,55.26934 59.0124,81.10458 0.3403,0.41408 0.7007,0.81333 1.0422,1.22635 h 26.2176 c -4.0394,-4.56486 -8.0118,-9.18052 -11.8726,-13.87766 l -0.024,-0.0294 -0.026,-0.027 C 414.67197,329.0935 378.95877,271.35745 351.00637,210.11302 Z m 982.33153,0 c -30.4223,67.21898 -71.0467,130.80153 -120.7442,185.20516 h 26.8242 c 21.6107,-25.02271 41.3989,-51.71917 59.2977,-79.63588 l -8.8527,-12.96564 63.2266,-92.60364 z m 5.2554,35.30732 -39.1192,57.29632 3.8939,5.70309 c 12.7701,-20.44038 24.4943,-41.50995 35.2253,-62.99941 z m -959.54453,21.71647 c 7.0604,13.03364 14.4764,25.88789 22.2787,38.52942 l 2.0137,-2.94957 z m 93.6892,136.11887 C 567.33047,538.60279 756.81527,619.1266 935.91251,573.63706 1045.3518,547.347 1137.8211,484.78363 1210.5407,403.25572 h -27.2645 c -68.385,72.30877 -153.275,127.29739 -252.06719,151.01966 l -0.064,0.0159 -0.062,0.0159 C 766.44417,596.16162 590.30357,525.49115 477.44397,403.2555 Z" />
      <path
         id="path29444"
         style="color:#000000;fill:#003da5;fill-opacity:1;stroke-width:1;-inkscape-stroke:none"
         d="m 480.36557,395.31822 h 11.8454 l -7.0503,-8.51721 c -5.8132,-6.409 -11.4983,-12.92251 -16.9487,-19.6088 l -0.011,-0.0132 -0.011,-0.0132 c -5.8671,-7.08793 -11.5697,-14.28856 -17.141,-21.57545 l -7.0017,-8.45847 h -2.1018 v -2.53894 l -4.4683,-5.39856 h 1.4097 c -27.0407,-37.52744 -50.3108,-77.4356 -69.8661,-119.07996 h -10.2939 c 26.9287,58.13663 60.9909,113.01968 102.3225,162.95185 6.1966,7.60042 12.6625,15.00478 19.3165,22.25331 z" />
      <path
         id="path29440"
         style="color:#000000;fill:#003da5;stroke-width:1;-inkscape-stroke:none"
         d="m 1169.7825,403.25572 h -12.9424 v -0.17463 c -63.627,63.38358 -141.0113,111.34513 -230.17219,132.93302 l -0.029,0.0106 -0.031,0.0106 C 773.31867,575.32858 610.27757,513.56425 500.70917,403.25681 h -12.8627 c 111.6155,116.47461 280.9742,182.77099 441.04194,141.74629 94.07419,-22.78777 175.05939,-74.14075 240.89729,-141.74629 z" />
      <path
         id="path29436"
         style="color:#000000;fill:#003da5;fill-opacity:1;stroke-width:1;-inkscape-stroke:none"
         d="m 1300.3461,210.11306 h -10.2102 c -19.4458,41.71341 -42.8871,81.88404 -70.1038,119.07996 h 2.2786 l -4.328,5.37131 v 2.56619 h -2.0685 l -46.8964,58.1877 h 8.3479 c 50.7151,-53.99961 92.0112,-117.71868 122.9804,-185.20516 z" />
      <path
         id="path29432"
         style="color:#000000;fill:#003da5;stroke-width:1;-inkscape-stroke:none"
         d="m 830.24931,-855.11882 c -4.1767,0.01 -8.3606,0.079 -12.5497,0.2167 -198.97914,4.5173 -366.09024,152.01243 -448.65824,324.08763 -110.2267,225.49885 -117.0294,503.741279 -13.9155,732.99005 h 10.2071 c -103.6487,-227.371021 -97.5521,-504.75091 12.0504,-728.94825 l 0.011,-0.016 0.011,-0.016 c 81.3575,-169.5519 246.0286,-314.44203 440.56064,-318.83803 h 0.024 0.024 c 8.1849,-0.2699 16.3489,-0.2813 24.4864,-0.039 h -0.011 c 122.0634,3.6293 237.92119,63.8706 321.81449,151.76583 198.1131,209.946 246.8301,532.31172 164.1523,803.57629 v 0.0106 0.0106 c -9.3687,31.22956 -20.9765,62.2353 -34.6528,92.4994 h 10.191 c 13.0958,-29.43357 24.235,-59.53338 33.3211,-89.81785 v -0.0132 c 83.566,-274.19457 34.5498,-599.81034 -166.2988,-812.63854 l -0.011,-0.011 -0.011,-0.011 c -85.3715,-89.44393 -203.34309,-150.93183 -328.23569,-154.62803 -4.1622,-0.1233 -8.332,-0.1818 -12.5087,-0.1754 z" />
      <g
         id="g47848"
         transform="translate(-7202.9963,1717.2658)"
         style="fill:none">
        <path
           sodipodi:type="star"
           style="opacity:1;fill:none;fill-opacity:1;stroke:#003da5;stroke-width:56.6753;stroke-miterlimit:4;stroke-dasharray:none;stroke-opacity:1"
           id="path47838"
           inkscape:flatsided="false"
           sodipodi:sides="5"
           sodipodi:cx="30975"
           sodipodi:cy="-8200"
           sodipodi:r1="309.23291"
           sodipodi:r2="154.61646"
           sodipodi:arg1="-2.8797933"
           sodipodi:arg2="-2.2514747"
           inkscape:rounded="0"
           inkscape:randomized="0"
           transform="matrix(0.11671007,0,0,0.11671007,3959.6543,-1079.0142)"
           inkscape:transform-center-x="0.3155756"
           inkscape:transform-center-y="-1.5603214"
           d="m 30676.304,-8280.0354 201.393,-40.1242 81.119,-188.6495 100.394,179.1368 204.484,18.8531 -139.346,150.8369 45.259,200.3014 -186.515,-85.9145 -176.512,104.9399 24.073,-203.9349 z" />
        <path
           sodipodi:type="star"
           style="opacity:1;fill:none;fill-opacity:1;stroke:#003da5;stroke-width:44.079;stroke-miterlimit:4;stroke-dasharray:none;stroke-opacity:1"
           id="path47840"
           inkscape:flatsided="false"
           sodipodi:sides="5"
           sodipodi:cx="30975"
           sodipodi:cy="-8200"
           sodipodi:r1="309.23291"
           sodipodi:r2="154.61646"
           sodipodi:arg1="-2.8797933"
           sodipodi:arg2="-2.2514747"
           inkscape:rounded="0"
           inkscape:randomized="0"
           transform="matrix(0.15006211,0,0,0.15006211,2976.164,-940.30159)"
           inkscape:transform-center-x="0.40563463"
           inkscape:transform-center-y="-2.0062216"
           d="m 30676.304,-8280.0354 201.393,-40.1242 81.119,-188.6495 100.394,179.1368 204.484,18.8531 -139.346,150.8369 45.259,200.3014 -186.515,-85.9145 -176.512,104.9399 24.073,-203.9349 z" />
        <path
           sodipodi:type="star"
           style="opacity:1;fill:none;fill-opacity:1;stroke:#003da5;stroke-width:56.6753;stroke-miterlimit:4;stroke-dasharray:none;stroke-opacity:1"
           id="path47842"
           inkscape:flatsided="false"
           sodipodi:sides="5"
           sodipodi:cx="30975"
           sodipodi:cy="-8200"
           sodipodi:r1="309.23291"
           sodipodi:r2="154.61646"
           sodipodi:arg1="-2.8797933"
           sodipodi:arg2="-2.2514747"
           inkscape:rounded="0"
           inkscape:randomized="0"
           transform="matrix(0.11671007,0,0,0.11671007,3959.6543,-807.81632)"
           inkscape:transform-center-x="0.3155756"
           inkscape:transform-center-y="-1.5603214"
           d="m 30676.304,-8280.0354 201.393,-40.1242 81.119,-188.6495 100.394,179.1368 204.484,18.8531 -139.346,150.8369 45.259,200.3014 -186.515,-85.9145 -176.512,104.9399 24.073,-203.9349 z" />
        <path
           sodipodi:type="star"
           style="opacity:1;fill:none;fill-opacity:1;stroke:#003da5;stroke-width:44.079;stroke-miterlimit:4;stroke-dasharray:none;stroke-opacity:1"
           id="path47844"
           inkscape:flatsided="false"
           sodipodi:sides="5"
           sodipodi:cx="30975"
           sodipodi:cy="-8200"
           sodipodi:r1="309.23291"
           sodipodi:r2="154.61646"
           sodipodi:arg1="-2.8797933"
           sodipodi:arg2="-2.2514747"
           inkscape:rounded="0"
           inkscape:randomized="0"
           transform="matrix(0.15006211,0,0,0.15006211,2910.0182,-669.10367)"
           inkscape:transform-center-x="0.40563463"
           inkscape:transform-center-y="-2.0062216"
           d="m 30676.304,-8280.0354 201.393,-40.1242 81.119,-188.6495 100.394,179.1368 204.484,18.8531 -139.346,150.8369 45.259,200.3014 -186.515,-85.9145 -176.512,104.9399 24.073,-203.9349 z" />
        <path
           sodipodi:type="star"
           style="opacity:1;fill:none;fill-opacity:1;stroke:#003da5;stroke-width:44.079;stroke-miterlimit:4;stroke-dasharray:none;stroke-opacity:1"
           id="path47846"
           inkscape:flatsided="false"
           sodipodi:sides="5"
           sodipodi:cx="30975"
           sodipodi:cy="-8200"
           sodipodi:r1="309.23291"
           sodipodi:r2="154.61646"
           sodipodi:arg1="-2.8797933"
           sodipodi:arg2="-2.2514747"
           inkscape:rounded="0"
           inkscape:randomized="0"
           transform="matrix(0.15006211,0,0,0.15006211,2949.7057,-397.90575)"
           inkscape:transform-center-x="0.40563463"
           inkscape:transform-center-y="-2.0062216"
           d="m 30676.304,-8280.0354 201.393,-40.1242 81.119,-188.6495 100.394,179.1368 204.484,18.8531 -139.346,150.8369 45.259,200.3014 -186.515,-85.9145 -176.512,104.9399 24.073,-203.9349 z" />
      </g>
      <g
         id="g47798"
         transform="translate(-7202.9963,1717.2658)"
         style="fill:none">
        <path
           sodipodi:type="star"
           style="opacity:1;fill:none;fill-opacity:1;stroke:#003da5;stroke-width:56.6753;stroke-miterlimit:4;stroke-dasharray:none;stroke-opacity:1"
           id="path47788"
           inkscape:flatsided="false"
           sodipodi:sides="5"
           sodipodi:cx="30975"
           sodipodi:cy="-8200"
           sodipodi:r1="309.23291"
           sodipodi:r2="154.61646"
           sodipodi:arg1="-2.8797933"
           sodipodi:arg2="-2.2514747"
           inkscape:rounded="0"
           inkscape:randomized="0"
           transform="matrix(-0.11671007,0,0,0.11671007,12109.804,-1079.0142)"
           inkscape:transform-center-x="-0.31564009"
           inkscape:transform-center-y="-1.5603214"
           d="m 30676.304,-8280.0354 201.393,-40.1242 81.119,-188.6495 100.394,179.1368 204.484,18.8531 -139.346,150.8369 45.259,200.3014 -186.515,-85.9145 -176.512,104.9399 24.073,-203.9349 z" />
        <path
           sodipodi:type="star"
           style="opacity:1;fill:none;fill-opacity:1;stroke:#003da5;stroke-width:44.079;stroke-miterlimit:4;stroke-dasharray:none;stroke-opacity:1"
           id="path47790"
           inkscape:flatsided="false"
           sodipodi:sides="5"
           sodipodi:cx="30975"
           sodipodi:cy="-8200"
           sodipodi:r1="309.23291"
           sodipodi:r2="154.61646"
           sodipodi:arg1="-2.8797933"
           sodipodi:arg2="-2.2514747"
           inkscape:rounded="0"
           inkscape:randomized="0"
           transform="matrix(-0.15006211,0,0,0.15006211,13093.294,-940.30158)"
           inkscape:transform-center-x="-0.40539912"
           inkscape:transform-center-y="-2.0062216"
           d="m 30676.304,-8280.0354 201.393,-40.1242 81.119,-188.6495 100.394,179.1368 204.484,18.8531 -139.346,150.8369 45.259,200.3014 -186.515,-85.9145 -176.512,104.9399 24.073,-203.9349 z" />
        <path
           sodipodi:type="star"
           style="opacity:1;fill:none;fill-opacity:1;stroke:#003da5;stroke-width:56.6753;stroke-miterlimit:4;stroke-dasharray:none;stroke-opacity:1"
           id="path47792"
           inkscape:flatsided="false"
           sodipodi:sides="5"
           sodipodi:cx="30975"
           sodipodi:cy="-8200"
           sodipodi:r1="309.23291"
           sodipodi:r2="154.61646"
           sodipodi:arg1="-2.8797933"
           sodipodi:arg2="-2.2514747"
           inkscape:rounded="0"
           inkscape:randomized="0"
           transform="matrix(-0.11671007,0,0,0.11671007,12109.804,-807.81628)"
           inkscape:transform-center-x="-0.31564009"
           inkscape:transform-center-y="-1.5603214"
           d="m 30676.304,-8280.0354 201.393,-40.1242 81.119,-188.6495 100.394,179.1368 204.484,18.8531 -139.346,150.8369 45.259,200.3014 -186.515,-85.9145 -176.512,104.9399 24.073,-203.9349 z" />
        <path
           sodipodi:type="star"
           style="opacity:1;fill:none;fill-opacity:1;stroke:#003da5;stroke-width:44.079;stroke-miterlimit:4;stroke-dasharray:none;stroke-opacity:1"
           id="path47794"
           inkscape:flatsided="false"
           sodipodi:sides="5"
           sodipodi:cx="30975"
           sodipodi:cy="-8200"
           sodipodi:r1="309.23291"
           sodipodi:r2="154.61646"
           sodipodi:arg1="-2.8797933"
           sodipodi:arg2="-2.2514747"
           inkscape:rounded="0"
           inkscape:randomized="0"
           transform="matrix(-0.15006211,0,0,0.15006211,13159.44,-669.10367)"
           inkscape:transform-center-x="-0.40559912"
           inkscape:transform-center-y="-2.0062216"
           d="m 30676.304,-8280.0354 201.393,-40.1242 81.119,-188.6495 100.394,179.1368 204.484,18.8531 -139.346,150.8369 45.259,200.3014 -186.515,-85.9145 -176.512,104.9399 24.073,-203.9349 z" />
        <path
           sodipodi:type="star"
           style="opacity:1;fill:none;fill-opacity:1;stroke:#003da5;stroke-width:44.079;stroke-miterlimit:4;stroke-dasharray:none;stroke-opacity:1"
           id="path47796"
           inkscape:flatsided="false"
           sodipodi:sides="5"
           sodipodi:cx="30975"
           sodipodi:cy="-8200"
           sodipodi:r1="309.23291"
           sodipodi:r2="154.61646"
           sodipodi:arg1="-2.8797933"
           sodipodi:arg2="-2.2514747"
           inkscape:rounded="0"
           inkscape:randomized="0"
           transform="matrix(-0.15006211,0,0,0.15006211,13119.753,-397.90575)"
           inkscape:transform-center-x="-0.40609912"
           inkscape:transform-center-y="-2.0062216"
           d="m 30676.304,-8280.0354 201.393,-40.1242 81.119,-188.6495 100.394,179.1368 204.484,18.8531 -139.346,150.8369 45.259,200.3014 -186.515,-85.9145 -176.512,104.9399 24.073,-203.9349 z" />
      </g>
      <path
         sodipodi:type="star"
         style="opacity:1;fill:#ffffff;fill-opacity:1;stroke:#003da5;stroke-opacity:1"
         id="path47800"
         inkscape:flatsided="false"
         sodipodi:sides="5"
         sodipodi:cx="30975"
         sodipodi:cy="-8200"
         sodipodi:r1="309.23291"
         sodipodi:r2="154.61646"
         sodipodi:arg1="-2.8797933"
         sodipodi:arg2="-2.2514747"
         inkscape:rounded="0"
         inkscape:randomized="0"
         transform="matrix(0.15006211,0,0,0.15006211,-4088.702,856.20161)"
         inkscape:transform-center-x="0.40563463"
         inkscape:transform-center-y="-2.0062216"
         d="m 30676.304,-8280.0354 201.393,-40.1242 81.119,-188.6495 100.394,179.1368 204.484,18.8531 -139.346,150.8369 45.259,200.3014 -186.515,-85.9145 -176.512,104.9399 24.073,-203.9349 z" />
      <path
         sodipodi:type="star"
         style="opacity:1;fill:#ffffff;fill-opacity:1;stroke:#003da5;stroke-opacity:1"
         id="path47802"
         inkscape:flatsided="false"
         sodipodi:sides="5"
         sodipodi:cx="30975"
         sodipodi:cy="-8200"
         sodipodi:r1="309.23291"
         sodipodi:r2="154.61646"
         sodipodi:arg1="-2.8797933"
         sodipodi:arg2="-2.2514747"
         inkscape:rounded="0"
         inkscape:randomized="0"
         transform="matrix(0.11671007,0,0,0.11671007,-3108.519,667.57331)"
         inkscape:transform-center-x="0.3155756"
         inkscape:transform-center-y="-1.5603214"
         d="m 30676.304,-8280.0354 201.393,-40.1242 81.119,-188.6495 100.394,179.1368 204.484,18.8531 -139.346,150.8369 45.259,200.3014 -186.515,-85.9145 -176.512,104.9399 24.073,-203.9349 z" />
      <path
         sodipodi:type="star"
         style="opacity:1;fill:#ffffff;fill-opacity:1;stroke:#003da5;stroke-opacity:1"
         id="path47804"
         inkscape:flatsided="false"
         sodipodi:sides="5"
         sodipodi:cx="30975"
         sodipodi:cy="-8200"
         sodipodi:r1="309.23291"
         sodipodi:r2="154.61646"
         sodipodi:arg1="-2.8797933"
         sodipodi:arg2="-2.2514747"
         inkscape:rounded="0"
         inkscape:randomized="0"
         transform="matrix(-0.15006211,0,0,0.15006211,5750.2857,856.20161)"
         inkscape:transform-center-x="0.40563463"
         inkscape:transform-center-y="-2.0062216"
         d="m 30676.304,-8280.0354 201.393,-40.1242 81.119,-188.6495 100.394,179.1368 204.484,18.8531 -139.346,150.8369 45.259,200.3014 -186.515,-85.9145 -176.512,104.9399 24.073,-203.9349 z" />
      <path
         sodipodi:type="star"
         style="opacity:1;fill:#ffffff;fill-opacity:1;stroke:#003da5;stroke-opacity:1"
         id="path47806"
         inkscape:flatsided="false"
         sodipodi:sides="5"
         sodipodi:cx="30975"
         sodipodi:cy="-8200"
         sodipodi:r1="309.23291"
         sodipodi:r2="154.61646"
         sodipodi:arg1="-2.8797933"
         sodipodi:arg2="-2.2514747"
         inkscape:rounded="0"
         inkscape:randomized="0"
         transform="matrix(-0.11671007,0,0,0.11671007,4770.1027,667.57331)"
         inkscape:transform-center-x="0.3155756"
         inkscape:transform-center-y="-1.5603214"
         d="m 30676.304,-8280.0354 201.393,-40.1242 81.119,-188.6495 100.394,179.1368 204.484,18.8531 -139.346,150.8369 45.259,200.3014 -186.515,-85.9145 -176.512,104.9399 24.073,-203.9349 z" />
      <path
         id="path47816"
         style="fill:#003da5;fill-opacity:1;stroke:none;stroke-width:0.368438px;stroke-linecap:butt;stroke-linejoin:miter;stroke-opacity:1"
         d="m 830.79301,-682.95439 c -305.65034,11.5271 -454.24334,371.68166 -404.81124,637.991379 6.5165,63.22484 26.8317,128.09485 58.0592,187.668171 h 691.87453 c 148.849,-286.807 62.8235,-725.33565 -264.60079,-815.40185 -26.8406,-7.3832 -53.6813,-7.9926 -80.5217,-10.2577 z m 28.5382,5.6833 c 22.8656,0.4971 44.7464,4.5042 65.5453,11.2979 2.3725,0.775 4.7434,1.5537 7.0871,2.4017 -2.3596,-0.8263 -4.7191,-1.6521 -7.0871,-2.4017 -25.164,-7.9647 -50.7902,-11.6099 -76.399,-11.2725 v 0 c -2.4495,0.032 -4.898,0.1529 -7.3467,0.2577 0.6345,-0.033 1.26,-0.099 1.8955,-0.1281 l 5.4414,-0.1312 v 0 c 3.6449,-0.095 7.266,-0.1029 10.8635,-0.024 z m 2.9576,13.1895 c 86.4719,-0.113 175.45119,48.555 251.15809,180.449 -22.8489,-31.6746 -55.6943,-41.4028 -63.1254,-45.1612 -19.9019,-8.6069 -36.3955,-13.125 -57.24759,-10.3405 -2.952,0.3945 -7.9463,0.073 -10.8773,0.6863 -46.1579,9.7894 -83.3647,36.874 -122.4865,66.7658 -51.554,39.184 -98.04134,70.6694 -141.32214,78.496 -29.2352,5.347 -60.4475,0.4358 -82.9773,-7.6665 -46.7112,-16.7773 -77.8246,-47.2284 -87.0358,-57.1146 l 0.07,-0.5574 c 66.4281,-101.027 187.4599,-205.3921 313.84404,-205.5569 z m -134.36214,17.5678 c -0.5387,0.2701 -1.0747,0.5513 -1.6126,0.8247 0.5387,-0.2726 1.0726,-0.5551 1.6126,-0.8247 z m -9.8467,5.1398 c -1.2885,0.7011 -2.571,1.4255 -3.8547,2.146 1.2837,-0.7184 2.5622,-1.4452 3.8547,-2.146 z m -9.7727,5.5252 c -1.802,1.0597 -3.5956,2.1493 -5.3871,3.2467 1.7896,-1.0943 3.5795,-2.1865 5.3871,-3.2467 z m -9.7327,5.9346 c -2.1423,1.356 -4.2735,2.7475 -6.3997,4.1577 2.1222,-1.406 4.2503,-2.7995 6.3997,-4.1577 z m -9.6877,6.35 c -2.3743,1.6124 -4.7355,3.2653 -7.0874,4.9448 2.3466,-1.6748 4.7051,-3.3287 7.0874,-4.9448 z m -9.6112,6.7509 c -2.5215,1.8325 -5.0274,3.7092 -7.5216,5.6184 2.4876,-1.9034 4.9914,-3.7806 7.5216,-5.6184 z m -9.5607,7.1789 c -2.5977,2.0159 -5.1777,4.0791 -7.7439,6.1775 2.5588,-2.0918 5.1366,-4.1547 7.7439,-6.1775 z m -9.4549,7.5732 c -2.6723,2.2103 -5.3245,4.4699 -7.9606,6.7686 2.6279,-2.2908 5.2782,-4.5503 7.9606,-6.7686 z m -9.2779,7.911 c -2.8006,2.4633 -5.5793,4.9784 -8.3365,7.5401 2.7477,-2.5519 5.5245,-5.0673 8.3365,-7.5401 z m 119.8292,8.0447 c 20.70034,53.798 19.84944,55.3186 27.99534,92.1499 -20.5459,-6.6641 -48.69814,-5.3121 -75.16894,12.7738 41.0538,-9.1427 73.65874,-8.7455 79.63384,6.7532 0.317,1.3584 0.572,2.4942 0.9102,3.9283 0.1349,1.4351 0.1082,2.9596 -0.1278,4.5971 l 6.8238,-3.7459 8.0661,-4.3482 6.626,-3.392 c -5.002,-34.3402 52.7029,-94.8634 52.7029,-94.8634 0.7969,-7.8798 -41.7889,28.1866 -63.4961,76.7265 -13.4257,-33.8648 -15.3252,-59.0005 -43.96534,-90.5793 z m -128.9073,0.1786 c -36.7419,34.3053 -69.5241,77.3186 -96.0022,127.4022 l 0.9787,0.9884 c 0.058,0.084 0.1275,0.1662 0.186,0.2498 -0.3818,-0.4167 -0.7983,-0.8213 -1.1745,-1.2398 24.1845,-46.3325 56.7769,-90.7844 96.012,-127.4006 z m 358.28893,61.6717 c 17.5168,-0.2892 40.6839,6.39 48.8186,8.8786 6.2521,2.2675 45.6072,19.4091 68.6982,41.755 -36.0891,-14.6116 -63.2891,-13.5247 -94.6851,0.3056 -27.87699,15.3506 -52.23299,44.2322 -71.41469,80.0473 -0.4781,0.8612 -0.6504,1.1877 -0.9324,1.6991 0.5429,0.093 1.0274,0.2218 1.5393,0.3131 -25.9188,-4.7279 -44.2208,-3.4417 -44.3129,-3.4417 0,0 135.74599,9.481 188.62089,131.50871 40.8802,27.03513 57.5429,40.66276 85.6697,90.62456 22.7711,40.28969 3.8809,126.462089 3.8809,126.462089 24.6272,45.67396019 19.7498,98.58242 -14.9484,158.803181 -1.7016,1.10437 -3.3737,1.93172 -4.9996,2.42834 1.5066,-23.609301 0.4895,-48.187501 -4.4497,-72.565151 -5.4362,-19.17674 -13.3972,-38.0166598 -23.6464,-56.13823 -1.4518,-2.56593 -2.9408,-5.10408 -4.4688,-7.61498 -24.0922,-39.50889 -58.0488,-73.96214 -86.8077,-103.847879 -37.8161,-39.41551 -66.72499,-72.01588 -88.79489,-109.28853 -14.9291,-25.16717 -24.9762,-49.39427 -31.763,-70.82816 -17.303,-54.61315 -16.8899,-89.59745 -18.293,-89.54395 0.7461,112.90533 4.3746,84.10385 2.0846,93.31638 -16.2769,68.24847 -45.018,229.071479 -41.938,260.928629 3.0001,-22.84465 7.2953,-49.13259 12.2293,-76.100769 -1.428,-0.13626 0.613,-3.34222 0,0 3.2099,-0.62072 12.9278,-5.30173 20.2766,-11.63241 8.7871,-7.56973 19.0474,-18.65313 28.3535,-33.2568 18.6219,-29.22111 20.6439,-54.3007 20.5119,-56.74069 l -0.7173,-13.2551 c 0.264,0.47308 0.4995,0.9406 0.7673,1.41447 6.5611,11.59033 13.798,22.76527 21.7109,33.81136 -1.5621,6.80429 -13.5649,34.435 -14.314,33.98309 1.0031,-0.37201 17.539,-17.31063 20.682,-25.31216 14.079,18.70101 30.21379,37.25862 48.49569,56.99892 -12.2679,2.18519 -55.24259,22.48562 -55.24259,22.48614 0.021,-0.32623 46.12479,-16.0983 59.87099,-17.53658 2.44,2.6117 4.8188,5.18663 7.3348,7.84675 5.416,5.74384 11.1011,11.76179 16.7679,17.787409 -16.741,-4.956969 -45.8248,3.36841 -45.7578,3.31708 -0.512,-0.64876 44.2201,2.09603 56.5041,8.22219 17.6769,19.18652 35.3809,39.68431 50.0449,61.56112 -6.0031,-4.69715 -14.9852,-11.30829 -19.9482,-14.52007 -2.562,-1.65814 -5.1258,-3.20727 -7.6867,-4.65084 -23.7292,-13.32573 -44.9781,-13.62815 -44.9781,-13.62815 0,0 18.3732,8.4447 39.8642,21.34446 2.3818,1.42637 4.7826,2.92232 7.2197,4.49236 18.9648,12.15443 33.4351,23.77572 40.4921,31.8351902 8.215,15.4603998 14.7209,31.3724398 19.345,47.4948298 8.6979,23.30582 13.2927,47.03259 15.1061,69.924341 -0.3503,0.0743 -0.695,0.11377 -1.0403,0.15558 -10.0896,-32.736101 -23.4252,-61.675701 -41.7417,-86.226651 -18.1949,-22.2874398 -39.5441,-39.0424498 -61.8144,-50.16553 -24.6099,-12.24412 -49.7898,-17.48631 -70.01559,-19.59213 -45.3581,-4.72308 -98.6642,17.45192 -101.7712,19.82735 0.2141,0.22383 0.5072,0.32676 0.757,0.49662 l -1.0578,-0.27199 c 0,-0.0339 0.2037,-0.15055 0.3008,-0.22463 -7.6171,-1.79203 -15.7988,-2.82099 -24.5628,-2.82417 -9.537,0 -19.744,1.18084 -30.5941,3.83593 0,0 -23.9001,-3.91477 -46.922,-2.74505 -26.31624,-15.70646 -68.11484,-18.09671 -113.05674,-13.41728 -20.2261,2.10581 -45.4086,7.348 -70.0185,19.59213 -22.269,11.1228102 -43.6179,27.87808 -61.8139,50.16526 -19.133,25.64712 -32.8734,56.03637 -43.1104,90.590951 -0.01,-0.0132 -0.016,-0.0238 -0.026,-0.0362 1.5451,-24.26282 6.1965,-49.580271 15.4614,-74.407711 4.6242,-16.12318 11.1308,-32.03575 19.3469,-47.4964098 7.0578,-8.05974 21.526,-19.6802402 40.491,-31.8336102 2.4368,-1.57004 4.8371,-3.06573 7.2213,-4.49183 21.49,-12.90002 88.3888,-29.5304 88.3888,-29.5304 0,0 -69.7738,8.4881 -93.5037,21.81409 -2.5612,1.4433 -5.1271,2.99218 -7.6901,4.65032 -4.961,3.21151 -13.942,9.82186 -19.9462,14.51901 14.664,-21.87654 32.3681,-42.37354 50.0441,-61.55954 12.2841,-6.12642 57.0172,-8.87147 56.505,-8.22272 0.07,0.0511 -29.018,-8.274309 -45.76,-3.31814 5.6671,-6.025349 11.3509,-12.042509 16.7669,-17.786079 6.0492,-6.39551 11.802,-12.60449 17.4173,-18.74494 5.2038,7.14587 30.3479,16.46132 30.3479,16.46132 -0.8249,0.42254 -21.967,-16.04354 -25.5561,-21.74055 13.9049,-15.39954 26.5049,-30.23896 37.759,-45.13633 1.95,10.07084 17.231,32.77579 18.2499,33.15388 -0.7649,0.46117 -10.5982,-35.42294 -11.4131,-42.42302 7.923,-11.058 15.1681,-22.24511 21.7361,-33.84815 0.1839,-0.32464 0.3439,-0.64479 0.526,-0.9689 l -0.476,12.809 c -0.09,2.44184 1.8912,27.52011 20.5152,56.74122 9.3049,14.60368 19.5636,25.68708 28.3507,33.2568 7.3768,6.3553 22.74994,14.49838 27.49494,16.05757 0.4649,2.7932 0.852,4.5466 1.128,4.34234 1.239,-0.9144 0.2995,-37.01468 -3.1057,-63.10948 -3.488,-26.73641 -9.6351,-60.31706 -19.42104,-95.5749 -6.365,-22.94202 -13.0794,-42.13781 -19.3362,-57.76966 6.6569,-30.37496 7.4882,-52.28322 6.9712,-62.99402 7.3819,16.7555 21.71384,54.70992 22.74994,59.6825 -0.903,-6.04573 -12.31504,-52.3226 -19.88504,-68.1291 8.722,-3.7092 17.52714,-8.096 26.48614,-13.0786 6.5241,11.5326 27.7908,92.36068 29.4288,100.0791 -0.5051,-2.83527 -14.641,-82.2232 -23.5278,-103.4362 9.7809,-5.679 19.7641,-12.0504 30.04,-19.0375 3.3629,12.1026 8.9556,61.3635 9.8055,74.26768 -0.2699,-12.40418 -1.5753,-60.61338 -5.8894,-76.94718 4.0511,-2.7942 8.1479,-5.6771 12.3,-8.6516 -2.907,28.6277 -3.0343,131.68629 -3.0412,140.94908 0.266,-14.85714 3.8127,-115.16518 7.6529,-144.27428 3.3768,-2.4482 6.787,-4.9475 10.238,-7.5047 7.5131,-5.5367 15.2323,-11.3067 23.1103,-17.0815 -10.722,29.0952 -14.7114,93.9895 -15.1014,100.0033 1.323,-10.2365 14.9069,-83.3787 24.324,-106.7028 26.5131,-19.0497 54.605,-37.1777 82.7212,-46.0597 -6.7392,7.8705 -16.5002,20.1752 -21.4241,27.3457 -2.557,3.7235 -5.0147,7.5666 -7.3727,11.512 -21.8021,36.611 -30.5712,81.6518 -30.5712,81.6518 11.5149,-26.1229 16.6349,-57.191 42.7839,-86.4907 18.415,-27.0862 34.6292,-34.5107 44.9342,-39.6402 1.1115,-0.084 2.2542,-0.1346 3.42209,-0.154 z m 120.3243,44.9541 c 0.1331,0.2558 0.2638,0.5103 0.3784,0.7487 -0.127,-0.2476 -0.2514,-0.5019 -0.3784,-0.7487 z m -334.53039,65.8053 c 0.2191,0.032 0.5487,0.4405 0.4739,1.2586 -0.8131,-0.8536 -0.72,-1.2936 -0.4739,-1.2586 z m 172.5999,23.5368 c 1.2208,0.2646 2.2852,0.4259 3.7211,0.7577 v 0 c 0.1233,0.064 0.3005,0.1445 0.4254,0.2093 -1.3811,-0.3201 -2.7982,-0.6802 -4.1465,-0.9665 z m -204.44304,1.2962 c 0.2802,0.5262 0.7289,1.5475 1.076,2.269 -1.1321,9.8558 -3.3779,41.0885 -17.5808,85.91685 -6.786,21.4339 -16.8341,45.661 -31.765,70.82816 -22.0681,37.27265 -50.9792,69.87302 -88.7953,109.28853 -28.7588,29.885749 -62.7149,64.338989 -86.8068,103.847889 -1.5272,2.51089 -3.0171,5.04904 -4.4681,7.6149702 -10.252,18.12158 -18.2112,36.9614998 -23.6481,56.1382298 -5.2237,25.78603 -6.0672,51.79775 -4.1651,76.646881 -3.4938,-4.80112 -6.7583,-9.67422 -9.8084,-14.60949 -30.5668,-56.878011 -33.9423,-107.0882508 -10.4256,-150.704291 -6.645,-40.40107 -5.0427,-75.833799 4.0137,-106.885039 12.8947,-29.47035 29.3936,-56.63829 48.0068,-79.81421 11.0178,-10.97465 23.5445,-21.08967 37.5327,-30.38686 32.249,-74.42676 95.29,-106.95042 139.5939,-121.02732 11.9391,-2.0611 22.143,-2.8562 29.477,-3.0969 5.9068,-1.6764 11.8181,-3.6918 17.7631,-6.0264 z m 107.23374,22.9462 c -0.104,0.8051 -0.1336,1.2396 -0.079,1.2115 0,0.011 0.06,-0.913 0.079,-1.2115 z m -29.269,13.50726 c 0.04,1.86955 0.06,3.12658 0.06,3.12658 0.09,-0.16245 0.06,-1.3036 -0.06,-3.12658 z m -52.3465,29.33515 c 0.04,0.26723 0.06,0.45878 0.06,0.56277 0.04,-0.054 0,-0.27253 -0.06,-0.56277 z m 55.716,26.01515 c -0.04,1.17396 -0.04,1.87193 0,1.9005 z m 175.78649,51.65461 c 33.1002,51.5186 44.4865,89.44001 28.4475,91.65642 l 12.1878,11.94091 c -0.3181,0.0619 -0.6298,0.0979 -0.9499,0.16431 l 8.0611,6.80059 6.6778,6.53811 c 0.021,-0.29633 0.021,-0.57864 0.04,-0.87391 l 4.2968,3.62505 c 54.7661,-5.9727 82.6281,33.034289 82.6281,33.034289 5.37,-1.16919 -29.722,-47.946729 -79.883,-50.751849 12.265,-24.58667 24.9237,-34.45271 27.6386,-75.37264 -19.68,36.09869 -21.7096,36.90434 -37.3507,53.68448 -6.4709,-27.83125 -23.5712,-52.40496 -51.7901,-80.44576 z m -358.69903,4.6773 c 0,0 0,0 0,0.003 z m 0,0.003 c -28.2181,28.03974 -45.3139,52.61239 -51.7856,80.44232 -15.6411,-16.78013 -17.6692,-17.58473 -37.3491,-53.68369 2.7141,40.92019 15.372,50.78545 27.637,75.37212 -50.16,2.80591 -85.253,49.583179 -79.883,50.752639 0,0 27.862,-39.007519 82.6291,-33.034819 l 4.2937,-3.62505 c 0.021,0.29527 0.021,0.57811 0.04,0.87444 l 6.676,-6.5397 8.06,-6.79953 c -0.3191,-0.0661 -0.6339,-0.10186 -0.952,-0.16431 l 12.1912,-11.94091 c -16.0377,-2.21641 -4.6569,-40.13649 28.4428,-91.65351 z m 129.66484,217.674539 c 2.2633,-1.15173 1.7452,-0.87735 -2.7254,1.45997 -0.033,-0.008 -0.066,-0.0159 -0.098,-0.0238 0.6755,-0.34422 2.3659,-1.20253 2.8236,-1.43563 z m -4.0865,1.12422 c 0.1474,0.0212 0.3054,0.0389 0.4525,0.0593 -0.046,0.005 -0.09,0.0132 -0.1357,0.0185 -0.1051,-0.027 -0.212,-0.0511 -0.3168,-0.0778 z m 119.7446,4.29895 c 0.011,0.003 0.024,0.0106 0.034,0.0132 -0.5188,0.20717 -0.5363,0.20505 -0.034,-0.0132 z m -20.0406,1.93622 c 11.9447,0.0857 24.5063,1.98543 37.7754,6.6553302 1.4277,0.50244 2.8657,1.04404 4.3098,1.61184 -0.054,0 -0.117,0 -0.1828,0 -1.1168,-0.21008 -16.5116,-4.2783102 -22.3745,-4.2809602 -6.8591,0.0106 -13.8033,0.30057 -20.7383,0.94827 -9.988,1.3954102 -19.8488,3.5567902 -29.3836,6.4187902 -1.3502,0.40534 -2.6871,0.82232 -4.0103,1.25121 -20.823,6.7654 -39.229,16.5724498 -55.181,24.8687198 -21.03704,10.90745 -38.39074,19.21404 -58.02394,25.39735 -13.2551,4.18386 -25.9318,6.90642 -37.1099,8.68072 -26.9637,4.2836 -42.0108,7.22894 -43.5533,7.89305 l -0.2151,0.008 c 0,0 1.7084,-4.16005 4.7233,-9.79408 7.3099,-11.2612 25.1158,-29.30076 67.1658,-38.77443 14.714,-11.9903798 22.0583,-16.8306698 48.3423,-24.6935598 21.20424,-6.3431202 65.25294,0.44265 65.25294,0.44265 13.5085,-3.8526002 27.8458,-6.7407902 43.2032,-6.6304602 z m -259.66184,3.07155 c -21.8469,9.2487702 -41.6703,22.3236902 -57.7508,39.72057 16.9595,-18.5793098 36.6823,-31.2697798 57.7508,-39.72057 z m 266.43334,8.5261902 c 23.05,9.40568 51.9623,20.7925498 67.9154,33.7290898 55.08779,12.41134 69.13689,40.0558 71.97269,47.45963 0.044,0.45059 0.1654,1.38668 0.1654,1.38668 0,0 -1.8706,-0.16721 -2.1968,-0.19446 -5.4904,-1.14539 -19.4162,-3.54066 -41.01229,-6.97151 -11.176,-1.7743 -23.857,-4.49739 -37.1131,-8.68124 -19.631,-6.18332 -36.9848,-14.49044 -58.0218,-25.39789 -10.4659,-5.44327 -35.8132,-19.76596 -43.4753,-24.78511 l -3.4671,2.9808 c -1.0999,0.94589 -2.3545,2.1934 -3.1956,3.29486 6.237,2.71303 22.2858,13.71335 28.0876,16.59943 4.5252,2.6998 7.125,3.52107 15.6559,7.94728 1.4142,0.72258 2.8134,1.43272 4.1992,2.13334 -0.227,1.8116 -1.7031,5.3377 -3.3009,8.86751 -2.5331,-4.73445 -5.6078,-8.58467 -9.2869,-11.1924 -3.9568,-2.9218 -3.225,-3.39699 -10.8061,-3.72957 0,0 -12.5431,-17.44504 -23.1592,-17.54214 -4.3979,0.44371 -7.5917,1.17105 -10.3008,2.38945 2.0683,-2.18228 4.9699,-5.11916 8.812,-8.559 0.78,-0.70088 1.5991,-1.40626 2.4561,-2.1209 6.5712,-5.5221198 12.8148,-9.7440798 17.0997,-11.7898398 8.1511,-2.29261001 16.5013,-4.05976 24.9272,-5.25303 1.1401,-0.21776 2.7358,-0.37227 4.0447,-0.57098 z m -41.9928,9.98908 c -2.5339,1.75155 -6.1301,4.3926198 -7.8719,5.8441198 -0.9038,0.75221 -1.752,1.50601 -2.545,2.26034 -5.0279,4.80165 -6.7678,9.17522 -7.4269,11.53927 v 0 c -3.2721,2.06878 -6.0872,5.12789 -10.1033,9.68004 -3.656,-0.33205 -6.9737,0.12039 -9.9926,1.13427 0.221,-2.41088 2.262,-12.97331 5.2658,-16.15307 10.2174,-5.08397 21.1299,-10.1645 32.6739,-14.3054998 z m -38.8657,17.4212298 v 0 c -2.5302,4.40875 -0.021,11.50302 0.6075,13.15402 0.1051,-0.0368 0.2072,-0.0815 0.3133,-0.11668 -0.011,0.1778 -0.1021,0.64744 -0.1003,0.72655 -0.019,-0.0399 -0.154,-0.44133 -0.2169,-0.60934 -3.5992,1.26603 -6.7257,3.38217 -9.4838,5.9481 -2.0888,-4.34869 -4.491,-9.74698 -4.7918,-12.13776 1.388,-0.70035 2.7866,-1.41076 4.1997,-2.13334 3.08,-1.56897 6.2381,-3.19008 9.4692,-4.83155 z m -247.02484,7.99174 c -0.4286,0.50059 -0.8726,0.98398 -1.2954,1.49119 0.4247,-0.51197 0.8668,-0.98743 1.2954,-1.49119 z m 230.72444,0.29713 c 0.568,2.28864 3.8742,7.29271 6.7251,11.43476 -11.9459,11.73004 -16.1186,32.34796 -16.1186,32.34796 0,0 11.4678,-28.79434 36.7879,-26.5901 7.8118,-8.23092 11.4519,-11.2014 22.3081,-12.23539 8.7608,-0.86096 22.394,17.50536 22.394,17.50536 6.7009,-0.42254 13.1355,-0.58923 19.0696,5.1144 -0.011,-0.0159 -0.021,-0.0331 -0.03,-0.05 0.7099,-1.4441 1.4759,-3.18003 2.2349,-4.85616 0.2681,0.50191 0.5311,1.00912 0.788,1.53008 2.3651,-3.57002 4.7072,-7.2972 5.149,-9.07626 1.052,0.52625 2.099,1.04457 3.138,1.55786 -3.2221,1.5166 -6.8958,7.67213 -7.6197,8.92413 0.01,0.0291 0.03,0.0558 0.04,0.0847 1.2311,-1.30228 7.8301,-6.5786 10.4032,-7.6237 3.678,1.79361 7.2909,3.50705 10.867,5.13979 -5.198,1.33879 -17.548,10.23726 -17.5541,10.23964 0.113,-0.18679 17.6681,-7.78007 21.749,-8.35713 3.0941,1.36658 6.1712,2.67812 9.2512,3.92536 -3.9471,1.03558 -11.9272,5.93434 -12.5841,6.52092 0.8469,-0.49556 13.8469,-4.16613 17.1892,-4.70402 4.5368,1.74439 9.1797,3.25543 13.8496,4.74953 -2.0384,0.1561 -7.2247,3.38534 -13.9243,8.15208 -0.6228,0.42942 -1.2411,0.87497 -1.8602,1.31762 -0.3427,0.24818 -0.7001,0.51277 -1.0496,0.76782 -1.5455,1.12633 -3.083,2.28203 -4.6086,3.47795 -23.9268,17.95807 -58.5493,47.198231 -59.6468,46.694201 -1.573,-0.72258 -6.5061,0.34581 -12.6423,2.00474 -0.1411,0.5932 -0.1765,0.97526 -0.2268,1.38642 0,0 0,0 -0.01,0 0.089,-0.51726 0.1913,-1.06098 0.1998,-1.41552 -10.201,2.75616 -23.4011,6.26163 -25.8853,0.51435 -5.8708,-13.58265 -19.4225,-28.96288 -33.4184,-42.353181 -3.125,-2.17699 -4.7432,-3.97166 -4.6924,-4.19602 0.03,-0.0561 0.1291,-0.0132 0.3421,0.10795 -0.1,-0.09 -0.194,-0.17966 -0.2908,-0.26908 -0.03,0.04 -0.05,0.16007 -0.05,0.16007 0,0 0.03,-0.13018 0.03,-0.17251 -18.42004,-16.97011 -35.21604,-32.1855 -35.92514,-32.18974 l -2.3688,0.77867 c 0.114,0.20082 0.2442,0.3982 0.3611,0.59849 -0.093,-0.0839 -0.5739,-0.52467 -0.618,-0.56436 4.5196,-1.45521 8.9778,-2.98847 13.3728,-4.67889 3.398,0.55721 16.3661,4.2209 17.1852,4.70879 -0.6652,-0.59134 -8.6363,-5.48349 -12.5844,-6.52409 3.084,-1.24831 6.1635,-2.55667 9.2583,-3.92483 4.1201,0.59954 21.62474,8.17112 21.73774,8.35765 0,0 -12.3468,-8.89476 -17.54984,-10.23911 3.575,-1.63274 7.18824,-3.34592 10.86724,-5.13979 2.6479,1.07738 9.6597,6.70877 10.5965,7.80203 -0.4749,-0.83105 -4.4119,-7.59857 -7.7721,-9.18898 1.0372,-0.51197 2.0823,-1.03108 3.1311,-1.55548 z m 94.866,25.6913 v 0 c -0.04,0.041 -0.1727,0.15214 -0.1997,0.18468 0.018,-0.0352 0.1291,-0.21246 0.1611,-0.26882 -0.2169,-0.47545 -0.4403,-0.94456 -0.6673,-1.40573 -0.8739,1.31948 -1.7536,2.70299 -2.5347,3.82879 -0.1529,-0.15478 -0.3053,-0.30586 -0.4582,-0.4527 0.1259,0.19235 0.2468,0.38735 0.3691,0.58287 0.03,-0.0378 0.06,-0.091 0.09,-0.12964 2.9358,2.9882 5.7456,7.47395 8.3994,14.15309 -4.1979,-6.43149 -8.7982,-11.89858 -13.6972,-15.30086 -3.761,-1.83197 -7.6547,-2.44104 -11.5956,-1.84837 -0.558,0.0839 -1.1163,0.19182 -1.6714,0.32199 -8.7228,2.08254 -17.3067,9.77953 -24.7018,16.13906 -9.744,8.33622 -17.6241,14.15547 -25.8061,15.82076 -5.5261,1.13744 -10.5201,0.26855 -14.7791,-1.45521 -10.8508,-4.38706 -16.9278,-12.41928 -17.0278,-11.76999 -0.1,0.64955 5.8029,9.93854 16.813,15.45855 4.3219,2.16455 9.435,3.43032 15.105,2.5863 2.2929,-0.34634 4.5702,-1.04484 6.8641,-2.00396 1.0631,1.45018 4.8771,8.879681 4.744,9.037641 0.011,-0.35507 -1.7018,-7.782191 -2.8628,-9.886161 1.279,-0.61674 2.5638,-1.2901 3.869,-2.07115 -0.1,0.22542 -0.1625,0.40428 -0.041,0.32464 0.725,-0.49186 5.8539,14.044881 5.8539,14.281151 0,-0.0106 -3.1469,-17.259041 -4.455,-15.274401 -0.09,-0.0492 -0.1368,-0.0302 -0.2138,-0.0622 3.964,-2.49211 8.0822,-5.6523 12.551,-9.38028 7.4271,-6.16082 15.9052,-13.67948 24.2771,-15.60353 0.5321,-0.12436 1.0682,-0.22702 1.6042,-0.30718 3.782,-0.56727 7.5089,-0.0106 11.1001,1.71264 5.049,1.36208 9.8356,4.93739 14.1996,9.69143 -6.8209,-3.10859 -13.1791,-3.68591 -19.1111,-0.74375 -5.271,3.26602 -9.8118,9.20539 -13.4379,16.82486 -3.9989,8.43147 -3.4851,11.158801 -5.1821,15.745351 -5.0441,13.63266 -6.5199,17.56913 -6.5199,17.56886 0,0 4.1794,-5.25356 7.5184,-15.81547 1.0538,-4.53628 1.2708,-6.24072 5.1319,-13.940631 3.4951,-6.99637 7.8446,-12.35445 12.8865,-15.2654 5.8089,-4.08807 12.0475,-5.10989 18.8613,-4.1267 0.021,0.0468 0.04,0.086 0.06,0.13282 -0.011,-0.0453 -0.021,-0.0863 -0.03,-0.13044 0.06,0.0106 0.113,0.0106 0.1709,0.0185 -0.09,-0.13203 -0.1765,-0.24818 -0.2603,-0.37941 -1.338,-6.11558 -3.1036,-11.83085 -5.3666,-16.79284 z m 22.129,9.84541 c -0.03,0.0265 -0.06,0.0376 -0.05,0.0466 0,-0.0132 0.03,-0.0275 0.05,-0.0466 z m -43.166,4.02008 c -0.7609,0.0439 -1.7618,0.41698 -3.0337,1.41023 -1.0872,0.84931 -3.7449,3.28586 -4.9257,4.56036 -0.4832,0.52149 -0.9483,1.05965 -1.3933,1.61237 -4.1212,5.12709 -5.7791,11.43476 -5.7791,11.43476 0,0 2.8634,-4.24577 6.7414,-8.7667 0.4299,-0.50218 0.8715,-1.00013 1.3305,-1.49569 3.787,-4.12803 7.102,-6.84715 9.0001,-7.58746 -0.07,-0.40269 -0.671,-1.24169 -1.9402,-1.16787 z m -18.8484,7.00114 c -0.1084,0 -0.2238,0.0185 -0.346,0.0661 -0.4893,0.18547 -1.0835,0.76835 -1.7534,1.84573 -2.3911,3.84043 -3.2097,14.81349 -3.2097,14.79127 -0.1619,0.0611 4.2489,-14.73571 6.0838,-16.09699 -0.1868,-0.3855 -0.449,-0.60087 -0.7747,-0.60616 z m -9.0815,4.72096 c -0.217,0.0921 -0.448,0.40799 -0.7189,1.13586 -0.7469,2.01162 -0.39,20.585901 -0.39,20.585901 -0.06,-0.0619 0.8528,-20.267611 1.7378,-21.517501 -0.2119,-0.16589 -0.413,-0.29633 -0.6289,-0.20426 z m -3.0086,1.89971 v 0 c -0.363,0.15293 -0.7731,0.87127 -0.8652,1.03452 0.6011,-0.39688 2.295,10.99608 2.14,11.20643 0,0 0.3439,-11.19135 -0.942,-12.16502 -0.1,-0.11588 -0.2129,-0.12752 -0.3328,-0.077 z m -18.9611,9.95971 c 4.663,3.56129 11.8409,11.335281 15.689,17.635011 2.227,2.2852 1.4507,5.4438 1.6867,5.31548 0.2339,-0.12806 1.1734,-3.09166 -0.7747,-6.03383 -2.1061,-2.77362 -12.379,-16.510261 -16.601,-16.916661 z m -22.828,5.864751 c 0.016,0.0132 0.031,0.0278 0.046,0.0418 -0.01,-0.005 -0.016,-0.0106 -0.024,-0.0159 -0.01,-0.008 -0.016,-0.0185 -0.021,-0.0238 z m -288.22814,20.88277 c -0.4381,1.31577 -0.8506,2.59345 -1.2059,3.7801 -0.099,-0.13282 -0.1895,-0.26802 -0.2874,-0.40084 0.4898,-1.14062 0.998,-2.24896 1.4933,-3.37926 z m 352.42004,8.19706 c 0.367,-0.0106 0.6824,0.005 0.9673,0.0392 -0.3312,-0.0349 -0.7117,-0.0132 -1.0594,-0.0278 0.027,0 0.067,-0.0106 0.092,-0.0106 z m -190.44634,207.3238 c 72.8536,42.93976 157.98964,60.61287 249.00924,37.26233 30.0069,-9.6311 57.9935,-22.20066 83.9912,-37.26233 z"
         sodipodi:nodetypes="ccccscsscssscccsssccsccccccscccccccccccccccccccccccccccccccccccccccccccccscccccccccccccscccccccccssscccccccccccccsccccccccccscccccccsccccccccccscccccccccccscccsccscccccccccccccccccccsccccscccscscsscccccccccccccccccccccccccccccccccccccccccccccsccscccccccccccccsccscccccccssccccsccccccccscsccccccccscccscccccccccccccccscssccccsccccccccscccccccccccccccccccccccccccscscsccscccccccccccccccccccccscccccccccsccccsccccccccccccsccccsccccccccccccccsssccsccssscccsssccssscccsccsccccccccccsccscccc" />
      <path
         id="path47834"
         style="fill:none;fill-opacity:1;stroke:none;stroke-width:29.9111;stroke-miterlimit:4;stroke-dasharray:none;stroke-opacity:1"
         d="m 507.23977,-496.37099 c 83.7685,-121.6017 189.751,-176.5966 323.33544,-181.323 196.76529,4.4465 329.34219,202.8224 385.60779,300.191"
         sodipodi:nodetypes="ccc" />
      <path
         sodipodi:type="star"
         style="opacity:1;fill:none;fill-opacity:1;stroke:#003da5;stroke-width:56.6753;stroke-miterlimit:4;stroke-dasharray:none;stroke-opacity:1"
         id="path47850"
         inkscape:flatsided="false"
         sodipodi:sides="5"
         sodipodi:cx="30975"
         sodipodi:cy="-8200"
         sodipodi:r1="309.23291"
         sodipodi:r2="154.61646"
         sodipodi:arg1="-2.8797933"
         sodipodi:arg2="-2.2514747"
         inkscape:rounded="0"
         inkscape:randomized="0"
         transform="matrix(0.11671007,0,0,0.11671007,-2911.7023,1413.5145)"
         inkscape:transform-center-x="-1.5607406"
         inkscape:transform-center-y="-0.31558665"
         d="m 30676.304,-8280.0354 201.393,-40.1242 81.119,-188.6495 100.394,179.1368 204.484,18.8531 -139.346,150.8369 45.259,200.3014 -186.515,-85.9145 -176.512,104.9399 24.073,-203.9349 z" />
      <path
         sodipodi:type="star"
         style="opacity:1;fill:none;fill-opacity:1;stroke:#003da5;stroke-width:44.079;stroke-miterlimit:4;stroke-dasharray:none;stroke-opacity:1"
         id="path47852"
         inkscape:flatsided="false"
         sodipodi:sides="5"
         sodipodi:cx="30975"
         sodipodi:cy="-8200"
         sodipodi:r1="309.23291"
         sodipodi:r2="154.61646"
         sodipodi:arg1="-2.8797933"
         sodipodi:arg2="-2.2514747"
         inkscape:rounded="0"
         inkscape:randomized="0"
         transform="matrix(0.15006211,0,0,0.15006211,-4061.488,1620.5695)"
         inkscape:transform-center-x="-2.0065227"
         inkscape:transform-center-y="-0.40562708"
         d="m 30676.304,-8280.0354 201.393,-40.1242 81.119,-188.6495 100.394,179.1368 204.484,18.8531 -139.346,150.8369 45.259,200.3014 -186.515,-85.9145 -176.512,104.9399 24.073,-203.9349 z" />
      <path
         sodipodi:type="star"
         style="opacity:1;fill:none;fill-opacity:1;stroke:#003da5;stroke-width:56.6753;stroke-miterlimit:4;stroke-dasharray:none;stroke-opacity:1"
         id="path47854"
         inkscape:flatsided="false"
         sodipodi:sides="5"
         sodipodi:cx="30975"
         sodipodi:cy="-8200"
         sodipodi:r1="309.23291"
         sodipodi:r2="154.61646"
         sodipodi:arg1="-2.8797933"
         sodipodi:arg2="-2.2514747"
         inkscape:rounded="0"
         inkscape:randomized="0"
         transform="matrix(0.11671007,0,0,0.11671007,-2640.5045,1413.5145)"
         inkscape:transform-center-x="-1.5606406"
         inkscape:transform-center-y="-0.31558665"
         d="m 30676.304,-8280.0354 201.393,-40.1242 81.119,-188.6495 100.394,179.1368 204.484,18.8531 -139.346,150.8369 45.259,200.3014 -186.515,-85.9145 -176.512,104.9399 24.073,-203.9349 z" />
      <path
         sodipodi:type="star"
         style="opacity:1;fill:none;fill-opacity:1;stroke:#003da5;stroke-width:44.079;stroke-miterlimit:4;stroke-dasharray:none;stroke-opacity:1"
         id="path47856"
         inkscape:flatsided="false"
         sodipodi:sides="5"
         sodipodi:cx="30975"
         sodipodi:cy="-8200"
         sodipodi:r1="309.23291"
         sodipodi:r2="154.61646"
         sodipodi:arg1="-2.8797933"
         sodipodi:arg2="-2.2514747"
         inkscape:rounded="0"
         inkscape:randomized="0"
         transform="matrix(0.15006211,0,0,0.15006211,-3808.4804,1704.9054)"
         inkscape:transform-center-x="-2.0063227"
         inkscape:transform-center-y="-0.40563503"
         d="m 30676.304,-8280.0354 201.393,-40.1242 81.119,-188.6495 100.394,179.1368 204.484,18.8531 -139.346,150.8369 45.259,200.3014 -186.515,-85.9145 -176.512,104.9399 24.073,-203.9349 z" />
      <path
         sodipodi:type="star"
         style="opacity:1;fill:none;fill-opacity:1;stroke:#003da5;stroke-width:44.079;stroke-miterlimit:4;stroke-dasharray:none;stroke-opacity:1"
         id="path47858"
         inkscape:flatsided="false"
         sodipodi:sides="5"
         sodipodi:cx="30975"
         sodipodi:cy="-8200"
         sodipodi:r1="309.23291"
         sodipodi:r2="154.61646"
         sodipodi:arg1="-2.8797933"
         sodipodi:arg2="-2.2514747"
         inkscape:rounded="0"
         inkscape:randomized="0"
         transform="matrix(0.15006211,0,0,0.15006211,-3562.087,1623.8768)"
         inkscape:transform-center-x="-2.0065227"
         inkscape:transform-center-y="-0.40562708"
         d="m 30676.304,-8280.0354 201.393,-40.1242 81.119,-188.6495 100.394,179.1368 204.484,18.8531 -139.346,150.8369 45.259,200.3014 -186.515,-85.9145 -176.512,104.9399 24.073,-203.9349 z" />
      <path
         id="path47910"
         style="fill:none;fill-opacity:1;stroke:none;stroke-width:29.9111;stroke-miterlimit:4;stroke-dasharray:none;stroke-opacity:1"
         d="m 507.23977,-496.37099 c 83.7685,-121.6017 189.751,-176.5966 323.33544,-181.323 196.76529,4.4465 329.34219,202.8224 385.60779,300.191"
         sodipodi:nodetypes="ccc" />
      <g
         aria-label="Champlain"
         transform="translate(-3247.662,2331.9604)"
         id="text47938"
         style="font-size:167.57px;line-height:1.25;font-family:Lobster;-inkscape-font-specification:'Lobster, Normal';white-space:pre;fill:#003da5">
        <path
           d="m 3811.7513,-2895.746 q -12.7129,14.0332 -25.7543,14.2026 -13.0414,0.1693 -29.4342,-14.6812 -13.0398,-11.8128 -24.129,-29.7723 -10.9767,-18.0836 -12.8816,-37.4456 -1.9167,-19.5986 11.6962,-34.6254 8.4377,-9.3142 17.7111,-11.3142 9.2733,-2.0001 17.7182,5.6501 5.3401,4.8377 6.5322,9.7614 1.068,4.8113 -2.9821,9.2821 -4.0501,4.4708 -9.6416,4.1537 0.9074,-3.248 -0.8707,-8.0242 -1.778,-4.7762 -5.3795,-8.0388 -3.3531,-3.0376 -7.1518,-3.0873 -3.6863,-0.1739 -7.2864,3.8001 -5.9626,6.582 -2.297,20.7558 3.5414,14.0612 13.827,30.1622 10.3981,15.9768 23.0653,27.4522 9.4384,8.5502 17.331,9.8214 7.8926,1.2712 15.5428,-7.1736 6.6377,-7.3271 9.034,-16.4616 2.3962,-9.1345 0.4853,-19.0054 l 3.8294,-1.7313 q 5.0113,10.1924 4.7146,21.0028 -0.2968,10.8103 -4.1132,20.0149 -3.9406,9.0921 -9.5657,15.3016 z"
           id="path1046" />
        <path
           d="m 3885.7733,-2968.1195 q -7.8506,6.5463 -15.0169,5.5401 -7.145,-1.2422 -12.2961,-7.4197 -2.2536,-2.7027 -4.4003,-6.5854 -2.254,-4.0114 -4.2934,-7.7655 -1.9107,-3.8613 -2.4045,-4.9768 -2.7265,-5.363 -5.4743,-10.4899 -2.7478,-5.1269 -5.0015,-7.8296 -5.473,-6.5636 -10.1062,-2.7003 -3.3461,2.7902 -3.1299,8.2827 0.109,5.3637 2.9645,11.9281 l 25.6967,48.6095 -18.5325,15.4534 -54.3131,-103.0753 16.901,-18.4566 20.0937,38.2269 q 0.4253,-12.5729 9.048,-19.763 6.5636,-5.473 13.4294,-5.089 6.8658,0.3841 12.9827,7.7199 3.1122,3.7323 6.0746,9.1166 2.8552,5.2556 6.6552,13.2143 2.2972,4.8482 4.6157,9.4603 2.34,4.3761 4.1643,6.564 2.1463,2.574 4.4851,3.0238 2.3387,0.4499 5.1701,-1.9111 3.8609,-3.2194 3.9239,-7.8538 -0.044,-4.763 -2.557,-12.4861 l 5.4053,-4.5072 q 7.0428,18.1274 4.8146,28.2764 -2.2068,9.9129 -8.8991,15.4933 z"
           id="path1048" />
        <path
           d="m 3921.5524,-2993.9388 q -8.3873,4.5698 -17.1056,1.8777 -8.7184,-2.6921 -15.3727,-14.9052 -5.9329,-10.8888 -8.1597,-25.1327 -2.1598,-14.4711 1.885,-27.3614 4.1117,-13.1175 16.0305,-19.6116 6.033,-3.2871 10.0984,-2.8305 4.0653,0.4566 5.9093,3.841 l 0.5612,1.03 -2.6306,-8.6807 21.1891,-11.5449 16.6644,55.8021 q 0.614,2.5279 1.9769,5.0294 3.4475,6.3273 9.4805,3.0401 4.1201,-2.2448 4.9785,-7.6741 1.0055,-5.5094 -0.596,-12.6516 l 6.1801,-3.3673 q 3.2143,18.8582 -1.7519,29.0064 -4.8993,9.9209 -12.9924,14.3304 -6.1801,3.3673 -11.8499,2.0675 -5.6028,-1.5272 -9.9463,-7.7479 -0.9801,8.358 -4.1929,15.07 -3.1458,6.4848 -10.3559,10.4133 z m 1.7877,-19.4845 q 3.6786,-2.0043 5.3661,-7.3128 1.7545,-5.5359 -0.2083,-12.2904 l -11.0561,-37.1033 q -1.0423,-1.9129 -3.4758,-2.8769 -2.5137,-1.1112 -5.6038,0.5724 -5.8858,3.207 -6.8264,12.6884 -1.0207,9.3342 1.6221,20.489 2.5627,11.0076 6.5713,18.3649 4.0087,7.3573 7.1912,8.2949 3.3296,0.8575 6.4197,-0.8262 z"
           id="path1050" />
        <path
           d="m 4081.0505,-3047.2076 q -10.0918,1.6249 -15.7419,-2.8968 -5.5113,-4.7136 -6.7899,-12.6547 -0.5593,-3.4743 -0.4247,-7.9089 0.108,-4.6 0.2693,-8.8692 0.3268,-4.2958 0.4712,-5.5071 0.3912,-6.0035 0.6437,-11.8149 0.2524,-5.8114 -0.3069,-9.2856 -1.3585,-8.4374 -7.3143,-7.4785 -4.3014,0.6925 -6.9177,5.5266 -2.6429,4.6688 -3.536,11.7714 l -2.6997,54.9173 -23.8233,3.8357 2.8876,-59.0211 q 0.1767,-2.0652 -0.1696,-4.2159 -1.172,-7.2793 -6.1352,-6.4802 -4.6323,0.7458 -7.414,5.6066 -2.6428,4.6687 -3.5094,11.9368 l -2.6996,54.9173 -23.8233,3.8356 4.2184,-85.5432 23.8233,-3.8356 -0.4347,8.8959 q 6.9191,-10.7885 18.6653,-12.6797 14.5587,-2.344 19.331,11.4843 6.8351,-15.5274 20.732,-17.7648 8.4374,-1.3585 14.1464,2.4747 5.709,3.8333 7.2273,13.2633 0.7724,4.7978 0.5733,10.94 -0.2258,5.9769 -1.0181,14.7606 -0.4978,5.3417 -0.8568,10.4913 -0.2202,4.9576 0.2326,7.77 0.5328,3.3088 2.3147,4.8889 1.782,1.5801 5.4216,0.9941 4.9632,-0.799 7.3818,-4.7527 2.3919,-4.1191 4.1712,-12.0434 l 6.9484,-1.1187 q -3.1913,19.1839 -10.2856,26.7758 -6.9556,7.3998 -15.5584,8.7848 z"
           id="path1052" />
        <path
           d="m 4137.8521,-3132.7512 23.5482,5.2675 -5.3599,11.6793 q 9.7493,-5.2027 20.7057,-2.7519 9.1576,2.0485 13.2007,9.3061 4.043,7.2577 0.9703,20.9941 -2.8898,12.9188 -9.6139,25.3233 -6.6875,12.241 -17.7666,19.5502 -11.0426,7.1458 -25.7602,3.8536 -10.4658,-2.3411 -12.583,-8.9963 l -17.4289,37.9989 -26.0097,0.3635 z m -1.9626,77.8613 q 7.8494,1.7558 14.5648,-4.4691 6.879,-6.1882 11.4363,-15.8149 4.7575,-9.7536 6.7328,-18.5841 3.0361,-13.5729 -5.1404,-15.4019 -2.9435,-0.6584 -6.5261,0.7724 -3.419,1.4675 -6.5497,4.7165 l -19.8905,43.6299 q 0.4669,4.0538 5.3728,5.1512 z"
           id="path1054" />
        <path
           d="m 4196.5114,-3020.7145 q -7.2977,-3.3823 -9.7447,-10.0573 -2.295,-6.6045 1.9329,-15.7266 1.7617,-3.8008 5.7966,-9.3184 l 51.571,-68.6291 23.9103,7.3883 -55.5354,73.9946 q -1.6651,1.9987 -2.8631,4.5832 -1.4093,3.0407 -0.6752,5.0432 0.9566,1.9209 4.3014,3.4712 4.409,2.0435 9.901,0.1563 5.5625,-2.0392 9.983,-7.1933 l 6.3854,2.9595 q -13.2355,13.8124 -24.8017,15.6547 -11.4956,1.6903 -20.1615,-2.3263 z"
           id="path1056" />
        <path
           d="m 4239.2376,-2998.598 q -7.762,-5.5662 -9.1283,-14.5878 -1.3662,-9.0216 6.7388,-20.3242 7.2263,-10.077 19.0851,-18.2754 12.0928,-8.2369 25.4595,-10.1989 13.6005,-2.0006 24.6307,5.9092 5.5832,4.0037 6.9396,7.8632 1.3564,3.8595 -0.8896,6.9916 l -0.6835,0.9532 6.6734,-6.1432 19.6094,14.0619 -43.0063,39.2688 q -2.0094,1.6521 -3.6695,3.9671 -4.199,5.8555 1.3842,9.8592 3.8129,2.7343 9.0753,1.1467 5.3987,-1.4898 11.1342,-6.0374 l 5.7193,4.1014 q -15.5848,11.0938 -26.8829,11.0339 -11.0643,-0.099 -18.554,-5.4694 -5.7193,-4.1014 -7.0139,-9.7723 -1.0608,-5.7096 2.6527,-12.3257 -7.9529,2.7513 -15.3941,2.7764 -7.2075,-0.013 -13.8801,-4.7983 z m 18.3237,-6.8617 q 3.4044,2.4412 8.9186,1.6528 5.748,-0.8269 10.9773,-5.5312 l 28.6057,-26.0885 q 1.2695,-1.7703 1.0795,-4.3809 -0.092,-2.7468 -2.9519,-4.7975 -5.4471,-3.9061 -14.3943,-0.6307 -8.8496,3.1393 -17.7458,10.3692 -8.7985,7.0937 -13.6811,13.9025 -4.8826,6.8087 -4.3433,10.0823 0.6756,3.3713 3.5353,5.422 z"
           id="path1058" />
        <path
           d="m 4378.8374,-3005.0139 q -3.9551,-3.8647 -4.018,-9.3149 -0.063,-5.4502 3.8018,-9.4052 3.8647,-3.9551 9.3149,-4.0181 5.5673,-0.1827 9.5224,3.682 3.955,3.8648 3.9008,9.4348 0.1828,5.5673 -3.6819,9.5223 -3.8648,3.9551 -9.4348,3.9009 -5.4502,0.063 -9.4052,-3.8018 z m -73.7335,59.1525 q -5.7528,-5.6215 -5.8349,-12.7304 0.038,-6.9918 7.0646,-14.1828 2.9278,-2.9963 8.5712,-6.8534 l 45.7433,-30.5082 17.2584,16.8643 -48.4479,32.317 q -2.2361,1.3293 -4.227,3.3667 -2.3423,2.397 -2.3176,4.5297 0.2615,2.1299 2.8983,4.7064 3.4756,3.3963 9.2826,3.4478 5.9241,-0.068 11.8099,-3.4544 l 5.0337,4.9188 q -17.0827,8.6106 -28.6015,6.4922 -11.4016,-2.2383 -18.2331,-8.9137 z"
           id="path1060" />
        <path
           d="m 4362.4034,-2882.2295 q -5.6569,-6.8465 -4.0848,-13.3623 1.5722,-6.5159 7.902,-11.7458 2.7128,-2.2414 6.6051,-4.3706 4.0216,-2.2359 7.7848,-4.2584 3.8699,-1.8933 4.9876,-2.3821 5.3752,-2.7022 10.5144,-5.4269 5.1393,-2.7247 7.8521,-4.9661 6.5882,-5.4435 2.7457,-10.094 -2.775,-3.3586 -8.2684,-3.1672 -5.3642,0.085 -11.9414,2.9107 l -48.7248,25.4774 -15.3697,-18.6019 75.9039,-39.674 15.3698,18.602 -7.8915,4.1292 q 12.5708,0.4819 19.722,9.1369 5.4434,6.5882 5.0284,13.4522 -0.415,6.8639 -7.7783,12.9478 -3.7462,3.0953 -9.1438,6.0335 -5.2685,2.8314 -13.2442,6.5955 -4.8585,2.2753 -9.481,4.5731 -4.3866,2.3202 -6.5827,4.1347 -2.5836,2.1346 -3.044,4.4713 -0.4604,2.3367 1.8878,5.1787 2.5616,3.1003 4.2973,3.6225 -7.2286,4.6684 -13.896,3.4389 -6.5607,-1.1003 -11.1503,-6.6551 z"
           id="path1062" />
      </g>
      <path
         style="color:#000000;fill:#003da5;fill-opacity:1;-inkscape-stroke:none"
         d="m 1163.3358,334.59161 h 42.3828 l -41.2656,51.2011 z"
         id="path30621" />
      <path
         style="color:#000000;fill:#003da5;fill-opacity:1;-inkscape-stroke:none"
         d="m 454.34947,334.59161 h 42.3281 v 51.1347 z"
         id="path30619" />
      <path
         style="color:#000000;fill:#003da5;fill-opacity:1;-inkscape-stroke:none"
         d="m 1217.4533,210.11321 h 113.6641 l -63.2266,92.6035 63.2266,92.6016 h -162.6289 l 46.8964,-58.1875 h 2.0684 v -2.5665 l 4.3281,-5.371 h -4.3281 z"
         id="path30617" />
      <path
         style="color:#000000;fill:#003da5;fill-opacity:1;-inkscape-stroke:none"
         d="m 326.17947,210.11291 h 113.6641 v 119.0801 h -4.4688 l 4.4688,5.3984 v 2.5391 h 2.1016 l 48.164,58.1875 h -163.9297 l 63.2266,-92.6016 z"
         id="path30615" />
    </g>
  </g>
  <metadata
     id="metadata38758">
    <rdf:RDF>
      <cc:Work
         rdf:about="">
        <dc:title>Draft Logo</dc:title>
      </cc:Work>
    </rdf:RDF>
  </metadata>
</svg>
