<?xml version="1.0" encoding="UTF-8" standalone="no"?>
<!-- Created with Inkscape (http://www.inkscape.org/) -->

<svg
   width="210mm"
   height="297mm"
   viewBox="0 0 210 297"
   version="1.1"
   id="svg38435"
   inkscape:version="1.1.1 (3bf5ae0d25, 2021-09-20)"
   sodipodi:docname="Logo.svg"
   xmlns:inkscape="http://www.inkscape.org/namespaces/inkscape"
   xmlns:sodipodi="http://sodipodi.sourceforge.net/DTD/sodipodi-0.dtd"
   xmlns="http://www.w3.org/2000/svg"
   xmlns:svg="http://www.w3.org/2000/svg"
   xmlns:rdf="http://www.w3.org/1999/02/22-rdf-syntax-ns#"
   xmlns:cc="http://creativecommons.org/ns#"
   xmlns:dc="http://purl.org/dc/elements/1.1/">
  <title
     id="title38760">Draft Logo</title>
  <sodipodi:namedview
     id="namedview38437"
     pagecolor="#505050"
     bordercolor="#ffffff"
     borderopacity="1"
     inkscape:pageshadow="0"
     inkscape:pageopacity="0"
     inkscape:pagecheckerboard="1"
     inkscape:document-units="mm"
     showgrid="false"
     inkscape:zoom="0.32026164"
     inkscape:cx="373.13242"
     inkscape:cy="488.66296"
     inkscape:window-width="960"
     inkscape:window-height="1017"
     inkscape:window-x="952"
     inkscape:window-y="-8"
     inkscape:window-maximized="0"
     inkscape:current-layer="layer1" />
  <defs
     id="defs38432" />
  <g
     inkscape:label="Layer 1"
     inkscape:groupmode="layer"
     id="layer1">
    <path
       id="path47816"
       style="fill:#224bb5;fill-opacity:1;stroke:none;stroke-width:0.0612305px;stroke-linecap:butt;stroke-linejoin:miter;stroke-opacity:1"
       d="M 106.13831,56.559929 C 55.342457,58.475608 30.647871,118.32939 38.862964,162.58717 c 1.082973,10.50729 4.459144,21.28798 9.648825,31.18843 H 163.49402 C 188.23115,146.11138 173.93462,73.232674 119.52017,58.264648 115.05954,57.03764 110.5989,56.936364 106.13831,56.559929 Z m 4.74275,0.944503 c 3.80002,0.08261 7.43638,0.748549 10.89294,1.877588 0.39428,0.128797 0.7883,0.258209 1.1778,0.399136 -0.39214,-0.137321 -0.78427,-0.27456 -1.1778,-0.399136 -4.18199,-1.323647 -8.4408,-1.92944 -12.69671,-1.873367 v 0 c -0.40708,0.0054 -0.814,0.02541 -1.22094,0.04283 0.10544,-0.0055 0.20939,-0.01645 0.31501,-0.02129 l 0.9043,-0.02179 v 0 c 0.60574,-0.01579 1.20753,-0.0171 1.8054,-0.004 z m 0.49152,2.191952 c 14.37072,-0.01878 29.15814,8.069315 41.73982,29.988669 -3.79724,-5.263976 -9.2558,-6.880698 -10.49077,-7.505304 -3.30749,-1.430372 -6.04855,-2.181232 -9.51395,-1.718478 -0.49059,0.06556 -1.32059,0.01213 -1.80769,0.114055 -7.67095,1.626892 -13.85433,6.128059 -20.35596,11.095753 -8.56773,6.511956 -16.293435,11.744481 -23.486247,13.045181 -4.858581,0.88862 -10.045735,0.0724 -13.78995,-1.27409 -7.762908,-2.7882 -12.933626,-7.848844 -14.46443,-9.491823 l 0.01163,-0.09263 C 70.254684,77.068121 90.36889,59.723771 111.3726,59.696384 Z m -22.329566,2.919578 c -0.08953,0.04488 -0.178603,0.09162 -0.267997,0.137055 0.08953,-0.0453 0.178255,-0.09225 0.267997,-0.137055 z m -1.636417,0.854179 c -0.214135,0.116515 -0.427273,0.236902 -0.64061,0.356642 0.213337,-0.119391 0.42581,-0.240176 0.64061,-0.356642 z m -1.62412,0.918228 c -0.299473,0.176111 -0.59755,0.35719 -0.895279,0.539566 0.297413,-0.18186 0.594875,-0.363372 0.895279,-0.539566 z m -1.617471,0.986266 c -0.356028,0.225354 -0.710211,0.456604 -1.063563,0.690966 0.352687,-0.233663 0.706355,-0.465248 1.063563,-0.690966 z m -1.609994,1.055302 c -0.394583,0.267964 -0.78699,0.542657 -1.177851,0.821772 0.38998,-0.278334 0.781938,-0.553194 1.177851,-0.821772 z m -1.59728,1.121926 c -0.419046,0.304542 -0.8355,0.616429 -1.25001,0.933717 0.413413,-0.316324 0.829518,-0.628295 1.25001,-0.933717 z m -1.588887,1.193055 c -0.43171,0.335021 -0.860479,0.677903 -1.286954,1.026634 0.425245,-0.347635 0.853648,-0.690466 1.286954,-1.026634 z m -1.571304,1.258584 c -0.444108,0.367329 -0.884876,0.742849 -1.322968,1.124868 0.436729,-0.380706 0.877181,-0.756211 1.322968,-1.124868 z m -1.541889,1.314723 c -0.46543,0.409373 -0.927221,0.827355 -1.385438,1.253083 0.456638,-0.424099 0.918113,-0.84213 1.385438,-1.253083 z m 19.914346,1.336941 c 3.440178,8.940645 3.298767,9.193352 4.652532,15.314315 -3.414514,-1.107501 -8.093118,-0.882813 -12.492285,2.122868 6.822707,-1.519419 12.241305,-1.453408 13.234305,1.122308 0.0527,0.225752 0.0951,0.414509 0.15126,0.652841 0.0224,0.238497 0.018,0.491853 -0.0212,0.763987 l 1.13405,-0.622527 1.3405,-0.722624 1.10117,-0.563714 c -0.83128,-5.706968 8.75866,-15.765268 8.75866,-15.765268 0.13244,-1.309538 -6.94487,4.684308 -10.55238,12.751112 -2.23121,-5.627962 -2.54688,-9.805243 -7.306572,-15.053298 z m -21.42303,0.02968 C 68.640852,78.38602 63.192797,85.534364 58.792417,93.857716 l 0.162649,0.164261 c 0.0096,0.01396 0.02119,0.02762 0.03091,0.04151 -0.06345,-0.06925 -0.132669,-0.13649 -0.195189,-0.206041 4.019208,-7.69996 9.435721,-15.087383 15.95618,-21.172599 z m 59.543832,10.24917 c 2.91111,-0.04806 6.76123,1.061949 8.11314,1.475527 1.03903,0.376835 7.57943,3.225583 11.41691,6.939229 -5.99763,-2.428291 -10.51798,-2.247658 -15.73566,0.05079 -4.63286,2.551104 -8.68057,7.350913 -11.86837,13.302998 -0.0794,0.14311 -0.10809,0.19737 -0.15495,0.28236 0.0902,0.0155 0.17074,0.0369 0.25581,0.052 -4.30743,-0.78573 -7.34903,-0.57198 -7.36433,-0.57198 0,0 22.55954,1.57564 31.34679,21.85533 6.79386,4.49294 9.56303,6.7577 14.2374,15.06081 3.78432,6.69571 0.64497,21.01664 0.64497,21.01664 4.09278,7.59052 3.28221,16.38332 -2.48427,26.39137 -0.28279,0.18352 -0.56067,0.32102 -0.83088,0.40355 0.25038,-3.9236 0.0814,-8.00823 -0.73949,-12.05954 -0.90344,-3.18696 -2.22648,-6.31796 -3.92978,-9.32956 -0.24128,-0.42644 -0.48873,-0.84824 -0.74267,-1.26553 -4.00387,-6.56595 -9.6471,-12.29171 -14.42652,-17.25839 -6.28464,-6.55044 -11.08899,-11.96826 -14.75678,-18.16257 -2.48105,-4.18252 -4.15078,-8.20879 -5.27867,-11.77088 -2.87558,-9.0761 -2.80692,-14.89012 -3.0401,-14.88123 0.12399,18.76366 0.72701,13.97715 0.34643,15.50818 -2.70504,11.34215 -7.48151,38.0692 -6.96965,43.36351 0.49859,-3.79654 1.2124,-8.16531 2.03238,-12.64713 -0.23732,-0.0226 0.10188,-0.55545 0,0 0.53345,-0.10315 2.14847,-0.88109 3.36976,-1.93319 1.46032,-1.258 3.16548,-3.09994 4.71205,-5.52691 3.09476,-4.85623 3.4308,-9.02419 3.40886,-9.42968 l -0.11921,-2.20286 c 0.0439,0.0786 0.083,0.15631 0.12752,0.23506 1.09039,1.9262 2.29308,3.78335 3.60812,5.61909 -0.2596,1.1308 -2.25434,5.72273 -2.37883,5.64761 0.1667,-0.0618 2.91479,-2.87682 3.43713,-4.20659 2.33978,3.1079 5.02121,6.19197 8.05947,9.4726 -2.0388,0.36315 -9.18074,3.73687 -9.18074,3.73695 0.003,-0.0542 7.66546,-2.67536 9.94993,-2.91439 0.4055,0.43403 0.80083,0.86197 1.21897,1.30405 0.90008,0.95456 1.84488,1.95468 2.78664,2.95607 -2.78217,-0.82379 -7.61559,0.55979 -7.60446,0.55126 -0.0851,-0.10781 7.34891,0.34834 9.39039,1.36644 2.93771,3.18859 5.87993,6.59511 8.31693,10.23079 -0.99765,-0.78062 -2.49038,-1.87932 -3.31518,-2.41308 -0.42578,-0.27556 -0.85185,-0.53301 -1.27745,-0.77291 -3.94354,-2.2146 -7.47488,-2.26486 -7.47488,-2.26486 0,0 3.05343,1.40341 6.625,3.54723 0.39583,0.23705 0.79482,0.48565 1.19984,0.74657 3.15175,2.01994 5.55656,3.95126 6.72936,5.29066 1.36525,2.56936 2.44646,5.21377 3.21494,7.89313 1.4455,3.87318 2.2091,7.81631 2.51047,11.62067 -0.0582,0.0123 -0.1155,0.0189 -0.17289,0.0258 -1.67678,-5.44038 -3.89302,-10.24983 -6.93703,-14.32992 -3.0238,-3.70394 -6.57181,-6.48844 -10.2729,-8.33698 -4.0899,-2.03483 -8.27453,-2.90603 -11.63585,-3.25599 -7.53803,-0.78493 -16.39694,2.90031 -16.91329,3.29509 0.0356,0.0371 0.0843,0.0543 0.1258,0.0825 l -0.17579,-0.0452 c 0,-0.006 0.0339,-0.025 0.05,-0.0373 -1.26589,-0.29782 -2.6256,-0.46882 -4.08208,-0.46934 -1.58495,0 -3.28125,0.19624 -5.08442,0.63748 0,0 -3.97194,-0.65059 -7.797939,-0.45619 -4.373481,-2.61025 -11.319966,-3.00748 -18.788835,-2.22981 -3.361364,0.34996 -7.546429,1.22116 -11.636335,3.256 -3.700872,1.84849 -7.248834,4.63303 -10.272816,8.33692 -3.179703,4.26228 -5.463212,9.31264 -7.164493,15.05524 -0.0017,-0.002 -0.0027,-0.004 -0.0043,-0.006 0.256779,-4.03222 1.029793,-8.2397 2.569521,-12.36575 0.768493,-2.6795 1.849821,-5.32399 3.21525,-7.89339 1.172932,-1.33945 3.577394,-3.27064 6.729177,-5.2904 0.40497,-0.26093 0.803874,-0.50948 1.200103,-0.74649 3.571411,-2.14385 14.689285,-4.90764 14.689285,-4.90764 0,0 -11.595669,1.41064 -15.539327,3.62527 -0.425644,0.23986 -0.85207,0.49727 -1.278013,0.77283 -0.824466,0.53372 -2.317013,1.63229 -3.314848,2.4129 2.437002,-3.63563 5.379236,-7.04202 8.3168,-10.23053 2.041488,-1.01815 9.475656,-1.47433 9.390534,-1.36652 0.01163,0.008 -4.822485,-1.3751 -7.604828,-0.55144 0.941812,-1.00135 1.886399,-2.00134 2.786481,-2.95585 1.005314,-1.06286 1.961368,-2.09473 2.894572,-3.11521 0.864816,1.18756 5.0435,2.73569 5.0435,2.73569 -0.13709,0.0702 -3.650683,-2.66626 -4.247154,-3.61304 2.310848,-2.55924 4.404834,-5.02539 6.275147,-7.50117 0.324069,1.67367 2.86361,5.44698 3.03294,5.50981 -0.127118,0.0766 -1.761309,-5.88691 -1.896736,-7.05023 1.316719,-1.83773 2.520778,-3.69691 3.61231,-5.62521 0.03056,-0.0539 0.05715,-0.10716 0.08741,-0.16102 l -0.07911,2.12872 c -0.01496,0.40581 0.314298,4.57355 3.40941,9.42978 1.546376,2.42697 3.251263,4.26891 4.711586,5.52691 1.225946,1.05618 3.7808,2.40948 4.569369,2.6686 0.07726,0.4642 0.141593,0.7556 0.187461,0.72166 0.205909,-0.15197 0.04977,-6.15145 -0.516134,-10.48812 -0.579669,-4.4433 -1.601252,-10.02404 -3.227572,-15.88351 -1.057795,-3.81272 -2.173658,-7.00285 -3.213472,-9.60069 1.106307,-5.04799 1.24446,-8.68891 1.15854,-10.46892 1.226794,2.78458 3.608611,9.09219 3.7808,9.91858 -0.15007,-1.00474 -2.04663,-8.69546 -3.304684,-11.32232 1.449504,-0.61643 2.912825,-1.34546 4.401717,-2.17353 1.084236,1.9166 4.618533,15.34935 4.890753,16.63207 -0.0839,-0.4712 -2.43318,-13.6646 -3.91007,-17.18997 1.62548,-0.9438 3.28458,-2.00265 4.99233,-3.163829 0.55888,2.011319 1.48832,10.197939 1.62957,12.342479 -0.0449,-2.06144 -0.2618,-10.07328 -0.97876,-12.787784 0.67325,-0.464365 1.3541,-0.943472 2.04413,-1.437801 -0.48311,4.757605 -0.50427,21.884835 -0.50541,23.424205 0.0442,-2.4691 0.63363,-19.1392 1.27183,-23.976818 0.56119,-0.406863 1.12793,-0.82222 1.70145,-1.247199 1.24859,-0.92014 2.53144,-1.879051 3.84068,-2.838761 -1.78188,4.835308 -2.44488,15.620038 -2.50969,16.619468 0.21987,-1.70121 2.47737,-13.856639 4.04239,-17.732851 4.4062,-3.165855 9.07478,-6.178532 13.74739,-7.654623 -1.11998,1.307992 -2.74216,3.352899 -3.56046,4.544558 -0.42494,0.618806 -0.83339,1.257487 -1.22526,1.91317 -3.62328,6.084352 -5.08061,13.569636 -5.08061,13.569636 1.91365,-4.341334 2.76454,-9.504516 7.11023,-14.373809 3.06038,-4.501432 5.75501,-5.735304 7.46759,-6.587771 0.18472,-0.01396 0.37462,-0.02237 0.56871,-0.02559 z m 19.99663,7.470884 c 0.0221,0.04251 0.0438,0.08481 0.0629,0.124426 -0.0211,-0.04115 -0.0418,-0.08341 -0.0629,-0.124426 z m -55.595417,10.93612 c 0.03641,0.005 0.09119,0.0732 0.07876,0.20918 -0.135129,-0.14186 -0.119657,-0.21499 -0.07876,-0.20918 z m 28.684277,3.91157 c 0.20289,0.044 0.37978,0.0708 0.61841,0.12592 v 0 c 0.0205,0.0106 0.0499,0.024 0.0707,0.0348 -0.22953,-0.0532 -0.46504,-0.11304 -0.68911,-0.16062 z M 93.400019,105.468 c 0.04657,0.0875 0.121136,0.25718 0.17882,0.37709 -0.188143,1.63793 -0.561371,6.82846 -2.921743,14.27845 -1.127762,3.56208 -2.79765,7.58836 -5.279007,11.77086 -3.667485,6.19432 -8.472204,11.61215 -14.756841,18.16258 -4.779408,4.96668 -10.422553,10.69244 -14.426372,17.25839 -0.253805,0.41728 -0.50141,0.8391 -0.742551,1.26552 -1.703774,3.01162 -3.026509,6.14261 -3.930064,9.32957 -0.868124,4.28536 -1.008305,8.60823 -0.692196,12.73789 -0.580633,-0.79791 -1.123158,-1.60775 -1.630052,-2.42794 -5.07988,-9.45252 -5.640852,-17.79692 -1.732625,-25.04542 -1.104329,-6.71422 -0.838043,-12.60276 0.667035,-17.76315 2.142962,-4.89764 4.884905,-9.41266 7.978222,-13.26425 1.831042,-1.82387 3.912847,-3.50488 6.237538,-5.04996 5.359443,-12.36893 15.836191,-17.77401 23.199031,-20.11344 1.984152,-0.34252 3.679933,-0.47466 4.898766,-0.51466 0.981648,-0.2786 1.964043,-0.61354 2.952039,-1.00153 z m 17.821111,3.81341 c -0.0173,0.1338 -0.0222,0.20602 -0.0131,0.20134 0,0.002 0.01,-0.15172 0.0131,-0.20134 z m -4.8642,2.24476 c 0.007,0.3107 0.01,0.51961 0.01,0.51961 0.0149,-0.027 0.01,-0.21664 -0.01,-0.51961 z m -8.69943,4.87518 c 0.0066,0.0444 0.01,0.0764 0.01,0.0935 0.0066,-0.009 0,-0.0453 -0.01,-0.0935 z m 9.25941,4.32345 c -0.007,0.1951 -0.007,0.31108 0,0.31584 z m 29.21386,8.58443 c 5.5009,8.56183 7.39318,14.86396 4.72767,15.23231 l 2.02548,1.98444 c -0.0529,0.0103 -0.10466,0.0163 -0.15786,0.0273 l 1.33967,1.13019 1.10978,1.08656 c 0.003,-0.0493 0.003,-0.0962 0.007,-0.14524 l 0.71408,0.60245 c 9.10155,-0.9926 13.73192,5.48994 13.73192,5.48994 0.89243,-0.19431 -4.93948,-7.96822 -13.27571,-8.43441 2.03831,-4.08604 4.14205,-5.72567 4.59324,-12.52612 -3.27061,5.99922 -3.60791,6.1331 -6.20729,8.92178 -1.0754,-4.62526 -3.91729,-8.70913 -8.60697,-13.36921 z m -59.611991,0.77732 c 0,0 0,0 0,4.9e-4 z m 0,4.9e-4 c -4.689549,4.65991 -7.530691,8.74362 -8.606219,13.36865 -2.599385,-2.78868 -2.936434,-2.9224 -6.207025,-8.92165 0.451054,6.80049 2.554663,8.43999 4.592977,12.52602 -8.336062,0.46632 -14.168148,8.24019 -13.27571,8.43455 0,0 4.630369,-6.48263 13.732083,-5.49003 l 0.713567,-0.60245 c 0.0035,0.0491 0.0035,0.0961 0.0066,0.14533 l 1.10948,-1.08683 1.339487,-1.13 c -0.05303,-0.011 -0.105347,-0.0169 -0.158212,-0.0273 l 2.026048,-1.98446 c -2.665296,-0.36835 -0.773927,-6.67024 4.726893,-15.23182 z m 21.548926,36.17515 c 0.376137,-0.1914 0.290034,-0.14581 -0.452932,0.24263 -0.0055,-0.001 -0.01097,-0.003 -0.01629,-0.004 0.112261,-0.0572 0.393188,-0.19985 0.469253,-0.23859 z m -0.679133,0.18684 c 0.0245,0.004 0.05075,0.006 0.0752,0.0103 -0.0076,8.3e-4 -0.01496,0.002 -0.02255,0.003 -0.01747,-0.004 -0.03523,-0.008 -0.05265,-0.0129 z m 19.900288,0.71443 c 0.002,5e-4 0.004,0.002 0.006,0.002 -0.0862,0.0344 -0.0891,0.0341 -0.006,-0.002 z m -3.33054,0.32178 c 1.98509,0.0143 4.07269,0.32996 6.27788,1.10605 0.23726,0.0836 0.47624,0.1735 0.71624,0.26786 -0.009,0 -0.0194,0 -0.0304,0 -0.1856,-0.0349 -2.74405,-0.711 -3.71841,-0.71144 -1.13991,0.002 -2.29396,0.05 -3.44648,0.15759 -1.6599,0.2319 -3.29866,0.59109 -4.88325,1.06673 -0.22439,0.0674 -0.44656,0.13666 -0.66647,0.20794 -3.46056,1.12433 -6.51944,2.75416 -9.170495,4.13291 -3.496133,1.81271 -6.380135,3.19316 -9.642965,4.22077 -2.202858,0.69531 -4.309591,1.14778 -6.167273,1.44264 -4.481082,0.71189 -6.981751,1.20136 -7.238098,1.31173 l -0.03575,0.001 c 0,0 0.283918,-0.69136 0.784963,-1.62767 1.214828,-1.8715 4.17398,-4.86947 11.162246,-6.44389 2.445311,-1.99268 3.665856,-2.79707 8.033979,-4.1038 3.523921,-1.05416 10.844353,0.0736 10.844353,0.0736 2.24497,-0.64026 4.62768,-1.12025 7.17991,-1.10192 z m -43.15305,0.51045 c -3.630724,1.53705 -6.925163,3.70997 -9.597573,6.60114 2.81849,-3.08768 6.096211,-5.19669 9.597573,-6.60114 z m 44.2784,1.41698 c 3.83067,1.56311 8.63559,3.45549 11.28683,5.6054 9.155,2.06263 11.48982,6.65684 11.9611,7.88728 0.007,0.0749 0.0275,0.23044 0.0275,0.23044 0,0 -0.31087,-0.0278 -0.36508,-0.0323 -0.91245,-0.19034 -3.22677,-0.58842 -6.81581,-1.15858 -1.85733,-0.29487 -3.96478,-0.74742 -6.1678,-1.44273 -3.26247,-1.02761 -6.14649,-2.40816 -9.64261,-4.22086 -1.73933,-0.90461 -5.95178,-3.28488 -7.22514,-4.11902 l -0.57619,0.49538 c -0.1828,0.1572 -0.3913,0.36452 -0.53108,0.54757 1.03652,0.45088 3.70366,2.279 4.66786,2.75865 0.75204,0.44868 1.1841,0.58515 2.60185,1.32074 0.23502,0.12009 0.46755,0.23811 0.69786,0.35454 -0.0377,0.30107 -0.28304,0.88707 -0.54857,1.47369 -0.42098,-0.78682 -0.93196,-1.42668 -1.54339,-1.86006 -0.65758,-0.48557 -0.53596,-0.56453 -1.79586,-0.61981 0,0 -2.08453,-2.89918 -3.84881,-2.91531 -0.73089,0.0737 -1.26166,0.19461 -1.71189,0.3971 0.34373,-0.36267 0.82595,-0.85074 1.46446,-1.42242 0.12963,-0.11647 0.26576,-0.2337 0.40818,-0.35246 1.09207,-0.91773 2.12969,-1.61937 2.84179,-1.95936 1.35463,-0.38099 2.74234,-0.67467 4.14264,-0.87299 0.18947,-0.0362 0.45466,-0.0619 0.67218,-0.0949 z m -6.97875,1.66007 c -0.42111,0.29109 -1.01876,0.73 -1.30823,0.97123 -0.1502,0.12501 -0.29117,0.25028 -0.42295,0.37564 -0.83559,0.79798 -1.12474,1.52483 -1.23428,1.91771 v 0 c -0.54378,0.3438 -1.01162,0.8522 -1.67906,1.60871 -0.60759,-0.0551 -1.15895,0.02 -1.66066,0.1885 0.0367,-0.40065 0.37592,-2.15602 0.87512,-2.68446 1.69802,-0.8449 3.51156,-1.68923 5.43006,-2.37742 z m -6.45907,2.89522 v 0 c -0.4205,0.73268 -0.003,1.91167 0.10096,2.18605 0.0175,-0.006 0.0344,-0.0136 0.0521,-0.0194 -0.002,0.0296 -0.017,0.1076 -0.0167,0.12074 -0.003,-0.007 -0.0256,-0.0733 -0.0361,-0.10126 -0.59815,0.2104 -1.11774,0.56208 -1.57611,0.98852 -0.347135,-0.72272 -0.746355,-1.61985 -0.796345,-2.01717 0.230671,-0.1164 0.463103,-0.23445 0.697945,-0.35454 0.51186,-0.26075 1.03671,-0.53017 1.57368,-0.80295 z m -41.05292,1.32814 c -0.07123,0.0831 -0.145017,0.16353 -0.215282,0.24781 0.07058,-0.0851 0.144053,-0.16409 0.215282,-0.24781 z m 38.343963,0.0494 c 0.0944,0.38036 0.643851,1.21197 1.117637,1.90035 -1.985279,1.9494 -2.678738,5.37588 -2.678738,5.37588 0,0 1.905827,-4.78531 6.113758,-4.419 1.29824,-1.36788 1.90319,-1.86154 3.70737,-2.03338 1.45596,-0.14309 3.72165,2.90921 3.72165,2.90921 1.11362,-0.0702 2.18298,-0.098 3.16916,0.84995 -0.002,-0.003 -0.003,-0.006 -0.005,-0.008 0.11798,-0.24 0.24528,-0.52849 0.37142,-0.80705 0.0446,0.0834 0.0883,0.16772 0.13095,0.2543 0.39306,-0.5933 0.78229,-1.21272 0.85571,-1.50838 0.17483,0.0875 0.34883,0.1736 0.52151,0.25889 -0.53548,0.25204 -1.14601,1.27504 -1.26632,1.4831 0.002,0.005 0.005,0.009 0.007,0.0141 0.20459,-0.21642 1.30128,-1.0933 1.7289,-1.26698 0.61125,0.29808 1.21167,0.58283 1.80598,0.85418 -0.86385,0.22248 -2.91629,1.70132 -2.9173,1.70171 0.0188,-0.031 2.93625,-1.29296 3.61445,-1.38887 0.51421,0.22712 1.02559,0.44508 1.53745,0.65236 -0.65597,0.1721 -1.98217,0.98622 -2.09134,1.08372 0.14074,-0.0824 2.30121,-0.69238 2.85666,-0.78177 0.75397,0.2899 1.52557,0.54102 2.30166,0.78932 -0.33876,0.0259 -1.20067,0.56261 -2.31407,1.35479 -0.10351,0.0714 -0.20626,0.14541 -0.30915,0.21897 -0.057,0.0412 -0.11635,0.0852 -0.17443,0.12761 -0.25685,0.18718 -0.51236,0.37925 -0.7659,0.578 -3.97638,2.98443 -9.73028,7.84382 -9.91267,7.76006 -0.26142,-0.12008 -1.08125,0.0575 -2.10102,0.33317 -0.0234,0.0986 -0.0293,0.16207 -0.0377,0.2304 0,0 0,0 -0.002,0 0.0148,-0.086 0.0318,-0.17632 0.0332,-0.23524 -1.69529,0.45805 -3.88901,1.04062 -4.30186,0.0855 -0.97566,-2.25728 -3.22781,-4.81332 -5.553784,-7.03863 -0.519342,-0.3618 -0.78827,-0.66006 -0.779828,-0.69734 0.005,-0.009 0.02146,-0.002 0.05685,0.0179 -0.01662,-0.0149 -0.03224,-0.03 -0.04833,-0.0447 -0.005,0.007 -0.0083,0.0266 -0.0083,0.0266 0,0 0.005,-0.0216 0.005,-0.0287 -3.061216,-2.82025 -5.852533,-5.34888 -5.970378,-5.34959 l -0.39367,0.12941 c 0.01895,0.0334 0.04058,0.0662 0.06001,0.0995 -0.01546,-0.0139 -0.09538,-0.0872 -0.102705,-0.0938 0.75111,-0.24184 1.492015,-0.49665 2.222418,-0.77758 0.564712,0.0926 2.719873,0.70147 2.855999,0.78255 -0.11055,-0.0983 -1.435262,-0.9113 -2.091395,-1.08423 0.512529,-0.20746 1.024309,-0.4249 1.538632,-0.65227 0.684717,0.0996 3.593803,1.35795 3.612583,1.38894 0,0 -2.051908,-1.4782 -2.916598,-1.70162 0.594127,-0.27134 1.194609,-0.55605 1.80602,-0.85418 0.440053,0.17906 1.60534,1.11493 1.761026,1.29662 -0.07892,-0.13811 -0.733211,-1.2628 -1.291641,-1.5271 0.172372,-0.0851 0.346057,-0.17137 0.520356,-0.25852 z m 15.765727,4.26962 v 0 c -0.007,0.007 -0.0287,0.0253 -0.0332,0.0307 0.003,-0.006 0.0215,-0.0353 0.0268,-0.0447 -0.036,-0.079 -0.0732,-0.15697 -0.11089,-0.23362 -0.14524,0.2193 -0.29143,0.44921 -0.42124,0.63631 -0.0254,-0.0257 -0.0507,-0.0508 -0.0761,-0.0752 0.0209,0.032 0.041,0.0644 0.0613,0.0969 0.005,-0.006 0.01,-0.0151 0.015,-0.0215 0.48789,0.4966 0.95485,1.24209 1.39589,2.35208 -0.69765,-1.06884 -1.46217,-1.97741 -2.27633,-2.54283 -0.62504,-0.30445 -1.27213,-0.40567 -1.92707,-0.30718 -0.0927,0.0139 -0.18552,0.0319 -0.27777,0.0535 -1.44964,0.3461 -2.87619,1.62526 -4.10518,2.68214 -1.61935,1.38539 -2.92894,2.35248 -4.2887,2.62924 -0.91838,0.18903 -1.74833,0.0446 -2.45613,-0.24185 -1.803286,-0.72907 -2.813219,-2.06395 -2.829838,-1.95604 -0.01662,0.10796 0.964381,1.65168 2.794138,2.56904 0.71826,0.35974 1.568,0.57009 2.5103,0.42982 0.38105,-0.0576 0.75952,-0.17364 1.14074,-0.33304 0.17667,0.24101 0.81052,1.47571 0.7884,1.50196 0.002,-0.059 -0.28282,-1.2933 -0.47577,-1.64297 0.21256,-0.10248 0.42608,-0.2144 0.64299,-0.3442 -0.0166,0.0375 -0.027,0.0672 -0.007,0.054 0.12048,-0.0817 0.97285,2.3341 0.97285,2.37336 0,-0.002 -0.52298,-2.86827 -0.74037,-2.53843 -0.015,-0.008 -0.0227,-0.005 -0.0355,-0.0103 0.65877,-0.41416 1.34317,-0.93935 2.08584,-1.55891 1.23431,-1.02386 2.64328,-2.27338 4.0346,-2.59313 0.0884,-0.0207 0.17752,-0.0377 0.2666,-0.051 0.62853,-0.0943 1.2479,-0.002 1.84472,0.28462 0.83909,0.22636 1.63457,0.82054 2.35982,1.61061 -1.13356,-0.51662 -2.19023,-0.61256 -3.17606,-0.1236 -0.87599,0.54277 -1.63062,1.52983 -2.23324,2.7961 -0.66457,1.40122 -0.57918,1.85448 -0.86121,2.61671 -0.83827,2.26561 -1.08354,2.9198 -1.08354,2.91976 0,0 0.69458,-0.87308 1.24948,-2.62836 0.17513,-0.75388 0.2112,-1.03714 0.85287,-2.31679 0.58085,-1.16272 1.30369,-2.05318 2.1416,-2.53694 0.96538,-0.67939 2.00217,-0.84921 3.13455,-0.68581 0.003,0.008 0.007,0.0143 0.01,0.0221 -0.002,-0.008 -0.003,-0.0143 -0.005,-0.0217 0.01,0.002 0.0188,0.002 0.0284,0.003 -0.015,-0.0219 -0.0293,-0.0412 -0.0433,-0.0631 -0.22236,-1.01635 -0.51579,-1.96616 -0.89188,-2.79078 z m 3.67761,1.63621 c -0.005,0.004 -0.01,0.006 -0.008,0.008 0,-0.002 0.005,-0.005 0.008,-0.008 z m -7.17374,0.66809 c -0.12645,0.007 -0.29279,0.0693 -0.50417,0.23436 -0.18068,0.14115 -0.62236,0.54608 -0.8186,0.75789 -0.0803,0.0867 -0.15759,0.1761 -0.23155,0.26796 -0.6849,0.85206 -0.96042,1.90033 -0.96042,1.90033 0,0 0.47586,-0.70561 1.12035,-1.45694 0.0714,-0.0834 0.14483,-0.1662 0.22111,-0.24855 0.62936,-0.68604 1.18028,-1.13794 1.49572,-1.26096 -0.0116,-0.0669 -0.11151,-0.20637 -0.32244,-0.19409 z m -3.1324,1.16351 c -0.018,0 -0.0372,0.003 -0.0575,0.011 -0.0813,0.0308 -0.18007,0.12769 -0.2914,0.30675 -0.39738,0.63824 -0.53342,2.46184 -0.53342,2.45815 -0.0269,0.0103 0.70612,-2.44891 1.01106,-2.67515 -0.031,-0.0641 -0.0746,-0.0999 -0.12874,-0.10074 z m -1.50925,0.78457 c -0.0361,0.0153 -0.0744,0.0678 -0.11948,0.18878 -0.12412,0.33431 -0.0648,3.42115 -0.0648,3.42115 -0.01,-0.0103 0.14173,-3.36825 0.2888,-3.57597 -0.0352,-0.0276 -0.0686,-0.0493 -0.10451,-0.034 z m -0.5,0.31571 v 0 c -0.0603,0.0254 -0.12848,0.1448 -0.14379,0.17193 0.0999,-0.066 0.38141,1.82743 0.35565,1.86239 0,0 0.0571,-1.85988 -0.15655,-2.0217 -0.0166,-0.0192 -0.0354,-0.0212 -0.0553,-0.0128 z m -3.15113,1.6552 c 0.77494,0.59185 1.96783,1.88381 2.60734,2.93075 0.37011,0.37978 0.24109,0.90471 0.28031,0.88338 0.0389,-0.0213 0.19501,-0.51381 -0.12874,-1.00277 -0.35001,-0.46093 -2.05726,-2.74382 -2.75891,-2.81136 z m -3.793776,0.97466 c 0.0027,0.002 0.0052,0.005 0.0076,0.007 -0.0017,-8.4e-4 -0.0027,-0.002 -0.004,-0.003 -0.0017,-0.001 -0.0027,-0.003 -0.0035,-0.004 z m -47.900471,3.4705 c -0.07281,0.21865 -0.14136,0.43099 -0.200407,0.6282 -0.01645,-0.0221 -0.03149,-0.0444 -0.04776,-0.0666 0.0814,-0.18955 0.165857,-0.37375 0.24817,-0.56158 z m 58.568487,1.36225 c 0.061,-0.002 0.11341,8.3e-4 0.16075,0.007 -0.055,-0.006 -0.11827,-0.002 -0.17606,-0.005 0.004,0 0.0111,-0.002 0.0153,-0.002 z m -31.65017,34.45497 c 12.107499,7.13612 26.25621,10.0732 41.3827,6.1926 4.98683,-1.60059 9.63791,-3.68951 13.95845,-6.1926 z"
       sodipodi:nodetypes="ccccscsscssscccsssccsccccccscccccccccccccccccccccccccccccccccccccccccccccscccccccccccccscccccccccssscccccccccccccsccccccccccscccccccsccccccccccscccccccccccscccsccscccccccccccccccccccsccccscccscscsscccccccccccccccccccccccccccccccccccccccccccccsccscccccccccccccsccscccccccssccccsccccccccscsccccccccscccscccccccccccccccscssccccsccccccccscccccccccccccccccccccccccccscscsccscccccccccccccccccccccscccccccccsccccsccccccccccccsccccsccccccccccccccsssccsccssscccsssccssscccsccsccccccccccsccscccc" />
    <path
       id="path34110"
       style="color:#000000;fill:#224bb5;fill-opacity:1;stroke-width:0.166189;-inkscape-stroke:none"
       d="m 42.411424,195.20112 v 29.68695 h 9.09588 48.398872 l 0.913194,-6.00438 c -0.11525,0.17154 -0.22941,0.35257 -0.34961,0.48263 -0.699943,0.75279 -1.428982,1.1291 -2.187205,1.1291 -0.889496,0 -1.545635,-0.32552 -1.968504,-0.97657 -0.408277,-0.67139 -0.612424,-1.4953 -0.612424,-2.4719 0,-0.42722 0.03645,-0.90532 0.109352,-1.4343 0.07291,-0.54929 0.145848,-1.07825 0.218705,-1.58691 0.08752,-0.5086 0.145815,-0.83412 0.174965,-0.97654 0.116665,-0.71207 0.2261,-1.41397 0.328157,-2.10569 0.102057,-0.69175 0.153111,-1.25124 0.153111,-1.67846 0,-1.03757 -0.262513,-1.55643 -0.787439,-1.55643 -0.379111,0 -0.714482,0.26447 -1.006094,0.79345 -0.291663,0.50866 -0.524976,1.18005 -0.699924,2.01417 l -1.487362,9.79607 h -3.149522 l 1.596632,-10.52845 c 0.04376,-0.24417 0.06569,-0.49849 0.06569,-0.76298 0,-0.89516 -0.218755,-1.34274 -0.656215,-1.34274 -0.408278,0 -0.765502,0.26449 -1.071706,0.79345 -0.291613,0.50863 -0.524976,1.19017 -0.699924,2.04465 l -1.487279,9.79607 h -3.149605 l 0.243733,-1.60396 c -0.162865,0.24064 -0.330783,0.45391 -0.506196,0.62741 -0.787372,0.7731 -1.582074,1.15966 -2.384054,1.15966 -0.612375,0 -1.108251,-0.23398 -1.487362,-0.70192 -0.36452,-0.48825 -0.583225,-1.19017 -0.656133,-2.10567 -0.422869,0.83412 -0.896741,1.51576 -1.421667,2.04473 -0.510335,0.5086 -1.122792,0.76286 -1.837324,0.76286 -0.831146,0 -1.523724,-0.39667 -2.0778,-1.19012 -0.264673,-0.379 -0.461874,-0.86689 -0.600127,-1.45012 -0.286161,0.64478 -0.587363,1.16316 -0.908956,1.51114 -0.69994,0.75279 -1.429063,1.1291 -2.187302,1.1291 -0.889479,0 -1.545612,-0.32552 -1.968481,-0.97657 -0.408277,-0.67139 -0.612441,-1.4953 -0.612441,-2.4719 0,-0.42722 0.03646,-0.90532 0.109369,-1.4343 0.07289,-0.54929 0.145881,-1.07825 0.218789,-1.58691 0.0875,-0.5086 0.145764,-0.83412 0.174964,-0.97654 0.116648,-0.71207 0.226017,-1.41397 0.328074,-2.10569 0.102057,-0.69175 0.153094,-1.25124 0.153094,-1.67846 0,-1.03757 -0.262496,-1.55643 -0.787422,-1.55643 -0.379128,0 -0.714482,0.26447 -1.006111,0.79345 -0.291612,0.50866 -0.524926,1.18005 -0.699923,2.01417 l -1.487279,9.79607 h -3.149589 l 0.451719,-2.95568 c -0.205127,0.3464 -0.423484,0.67676 -0.670474,0.97211 -0.714482,0.85449 -1.479967,1.48512 -2.296522,1.89203 -0.816572,0.38654 -1.589369,0.57989 -2.318442,0.57989 -1.647686,0 -2.857943,-0.57989 -3.630774,-1.73954 -0.772831,-1.15964 -1.159205,-3.08224 -1.159205,-5.76776 0,-2.1362 0.255151,-4.43526 0.765535,-6.89697 0.524926,-2.46177 1.356023,-4.56749 2.493374,-6.31713 1.151908,-1.77005 2.610071,-2.65501 4.374405,-2.65501 1.093642,0 1.975792,0.33572 2.646516,1.00711 0.670741,0.67139 1.006194,1.69882 1.006194,3.08228 0,0.87479 -0.12401,1.5665 -0.371865,2.07511 -0.247905,0.4883 -0.634329,0.73248 -1.159255,0.73248 -0.524926,0 -0.940449,-0.26449 -1.24662,-0.79346 0.262463,-0.1831 0.495693,-0.54934 0.699841,-1.09866 0.204113,-0.54934 0.306253,-1.11894 0.306253,-1.70894 0,-0.54932 -0.109385,-0.99699 -0.328057,-1.34283 -0.204197,-0.34587 -0.539618,-0.51881 -1.006194,-0.51881 -0.772831,0 -1.509216,0.74264 -2.20909,2.22784 -0.69989,1.46484 -1.268574,3.31619 -1.706034,5.55415 -0.422869,2.23794 -0.634246,4.3945 -0.634246,6.46965 0,1.54625 0.189573,2.72629 0.568684,3.54012 0.379111,0.81381 1.06436,1.22071 2.055913,1.22071 0.860279,0 1.655064,-0.26449 2.384137,-0.79345 0.695104,-0.50436 1.294466,-1.21849 1.804003,-2.12969 l 2.351696,-15.38741 3.237005,-0.61036 -1.181092,7.69043 c 0.729073,-1.1393 1.582107,-1.70903 2.559052,-1.70903 0.743681,0 1.334218,0.28485 1.771645,0.85453 0.437411,0.56965 0.656133,1.43438 0.656133,2.59404 0,0.58999 -0.051,1.25114 -0.153061,1.98357 -0.102056,0.71205 -0.247904,1.58691 -0.437477,2.62453 -0.116648,0.63067 -0.226001,1.25119 -0.328058,1.86155 -0.08746,0.59001 -0.131206,1.05795 -0.131206,1.40379 0,0.40689 0.0656,0.72226 0.196801,0.94606 0.131257,0.22383 0.357274,0.33572 0.678037,0.33572 0.43746,0 0.787438,-0.2137 1.049901,-0.64091 0.169414,-0.2889 0.338794,-0.71137 0.508174,-1.19513 0,-0.0412 -0.0052,-0.0753 -0.0052,-0.11705 0,-1.50553 0.211459,-3.08228 0.634278,-4.73023 0.437477,-1.66829 1.079101,-3.07211 1.92479,-4.21144 0.860329,-1.15966 1.880981,-1.73949 3.06209,-1.73949 0.597833,0 1.042506,0.14241 1.334118,0.42726 0.291663,0.2848 0.437511,0.6612 0.437511,1.12914 v 0.2136 l 0.240526,-1.61739 h 3.149589 l -1.574762,10.37592 c -0.05835,0.30521 -0.08746,0.63067 -0.08746,0.97655 0,0.87485 0.298958,1.31226 0.896791,1.31226 0.408311,0 0.758273,-0.26447 1.049885,-0.79345 0.304892,-0.52672 0.544271,-1.21588 0.719069,-2.06535 l 1.489955,-9.80593 h 3.149588 l -0.240659,1.58688 c 0.743682,-1.15966 1.633177,-1.73949 2.668421,-1.73949 1.283165,0 2.034109,0.87484 2.252814,2.62448 0.80198,-1.72928 1.815437,-2.59402 3.040293,-2.59402 0.743631,0 1.334169,0.28485 1.771629,0.85453 0.437427,0.56965 0.656132,1.43438 0.656132,2.59404 0,0.58999 -0.051,1.25114 -0.15306,1.98357 -0.102057,0.71205 -0.247905,1.58691 -0.43746,2.62453 -0.116665,0.63067 -0.226018,1.25119 -0.328075,1.86155 -0.0875,0.59001 -0.13129,1.05795 -0.13129,1.40379 0,0.40689 0.0657,0.72226 0.196902,0.94606 0.131256,0.22383 0.357257,0.33572 0.678036,0.33572 0.437458,0 0.787418,-0.2137 1.049878,-0.64091 0.26247,-0.44763 0.52493,-1.12914 0.78739,-2.04466 v 0 l 1.66153,-10.92524 h 3.14951 l -0.34996,2.28882 c 0.72909,-0.87485 1.58215,-1.31226 2.55906,-1.31226 0.81659,0 1.46551,0.37639 1.94668,1.12917 0.48119,0.75274 0.72175,1.98361 0.72175,3.69258 0,1.60729 -0.16771,3.23481 -0.50308,4.88277 -0.3354,1.62757 -0.90408,3.02129 -1.70603,4.18092 -0.80198,1.13935 -1.8591,1.70895 -3.17139,1.70895 -0.93326,0 -1.55293,-0.36615 -1.85915,-1.09858 l -0.83882,5.49123 h 15.89386 c 0.0184,-1.11467 0.3472,-2.02223 0.99898,-2.71421 0.67077,-0.6917 1.5238,-1.2715 2.55906,-1.73944 l 0.26247,-1.61747 c -0.74363,1.11897 -1.61849,1.67847 -2.62463,1.67847 -0.8311,0 -1.52378,-0.39667 -2.07785,-1.19012 -0.28045,-0.4016 -0.4887,-0.91984 -0.6272,-1.55078 -0.32749,0.67421 -0.68488,1.21162 -1.07882,1.58124 -0.84574,0.7731 -1.68415,1.15966 -2.51528,1.15966 -0.69992,0 -1.2686,-0.30513 -1.70603,-0.91549 -0.42287,-0.61035 -0.63433,-1.52587 -0.63433,-2.74655 0,-0.50862 0.0584,-1.16989 0.17506,-1.98367 l 1.48727,-9.79607 h 3.1496 l -1.57482,10.37592 c -0.0583,0.30521 -0.0875,0.63067 -0.0875,0.97655 0,0.40691 0.0656,0.70192 0.19685,0.88501 0.14581,0.16278 0.37913,0.24416 0.69989,0.24416 0.42287,0 0.81654,-0.24421 1.18106,-0.73246 0.20419,-0.28493 0.37291,-0.61937 0.51306,-0.99366 -0.002,-0.079 -0.01,-0.14594 -0.01,-0.22697 0,-1.50553 0.21141,-3.08228 0.63425,-4.73023 0.43746,-1.66829 1.07913,-3.07211 1.92482,-4.21144 0.86033,-1.15966 1.88103,-1.73949 3.06209,-1.73949 0.59784,0 1.04251,0.14241 1.33417,0.42726 0.29161,0.2848 0.43746,0.6612 0.43746,1.12914 v 0.18309 l 0.24066,-1.58688 h 3.14951 l -2.1653,14.16011 c 0.69987,-0.32552 1.26126,-0.81387 1.68408,-1.4649 0.42169,-0.64918 0.7779,-1.61263 1.06906,-2.88894 l 1.49006,-9.80627 h 3.14959 l -0.24066,1.58688 c 0.72909,-1.1393 1.58212,-1.70903 2.55906,-1.70903 0.74368,0 1.33422,0.28485 1.77163,0.85453 0.43743,0.56965 0.65615,1.43438 0.65615,2.59404 0,0.58999 -0.051,1.25114 -0.15303,1.98357 -0.1021,0.71205 -0.24795,1.58691 -0.43751,2.62453 -0.11664,0.63067 -0.22601,1.25119 -0.32807,1.86155 -0.0874,0.59001 -0.13121,1.05795 -0.13121,1.40379 0,0.40689 0.0656,0.72226 0.19687,0.94606 0.13121,0.22383 0.35721,0.33572 0.67802,0.33572 0.43743,0 0.78744,-0.2137 1.04985,-0.64091 0.16288,-0.27773 0.3257,-0.67747 0.48853,-1.13529 0,-0.0514 -0.007,-0.0941 -0.007,-0.14643 0,-1.38346 0.20416,-2.91953 0.61242,-4.6082 0.40828,-1.68861 1.06446,-3.14322 1.96845,-4.36393 0.90406,-1.24104 2.04141,-1.86156 3.41207,-1.86156 1.86642,0 2.79971,1.62758 2.79971,4.88275 v 0.0306 c 0.0438,0.0203 0.12391,0.0305 0.24053,0.0305 0.48121,0 1.03534,-0.17293 1.66232,-0.51881 0.027,-0.0158 0.0504,-0.0358 0.0772,-0.0518 l 0.62272,-4.0985 h 3.14959 l -0.24065,1.58688 c 0.72908,-1.1393 1.58216,-1.70903 2.5591,-1.70903 0.74365,0 1.33417,0.28485 1.77163,0.85453 0.43743,0.56965 0.6561,1.43438 0.6561,2.59404 0,0.58999 -0.051,1.25114 -0.15311,1.98357 -0.10205,0.71205 -0.24782,1.58691 -0.43738,2.62453 -0.11664,0.63067 -0.2261,1.25119 -0.32815,1.86155 -0.0875,0.59001 -0.13126,1.05795 -0.13126,1.40379 0,0.40689 0.0657,0.72226 0.19695,0.94606 0.13126,0.22383 0.35726,0.33572 0.67804,0.33572 0.34991,0 0.59049,-0.061 0.72174,-0.18309 -0.0875,1.03759 -0.35722,1.82079 -0.80924,2.34977 -0.43748,0.52896 -0.9697,0.79346 -1.59673,0.79346 -0.77278,0 -1.33415,-0.32552 -1.68413,-0.97657 -0.34991,-0.65103 -0.52488,-1.47499 -0.52488,-2.4719 0,-0.42722 0.0364,-0.90532 0.10932,-1.4343 0.0729,-0.54929 0.14585,-1.07825 0.21876,-1.58691 0.0874,-0.5086 0.14576,-0.83412 0.17491,-0.97654 0.11665,-0.71207 0.226,-1.41397 0.32806,-2.10569 0.10211,-0.69175 0.15316,-1.25124 0.15316,-1.67846 0,-1.03757 -0.26243,-1.55643 -0.78739,-1.55643 -0.37908,0 -0.71445,0.26447 -1.00606,0.79345 -0.29166,0.50866 -0.52496,1.18005 -0.69992,2.01417 l -1.48742,9.79607 h -3.14955 l 1.48332,-9.76225 c -0.56802,0.31298 -1.17745,0.54884 -1.83318,0.69856 -0.1167,1.8514 -0.41563,3.46884 -0.8968,4.85228 -0.48118,1.38346 -1.1009,2.45161 -1.85914,3.2044 -0.75822,0.75274 -1.58211,1.12912 -2.47155,1.12912 -1.07905,0 -1.932,-0.3865 -2.55904,-1.15965 -0.3012,-0.37142 -0.52589,-0.8522 -0.68237,-1.43024 -0.28766,0.65043 -0.59075,1.17175 -0.91429,1.52179 -0.69993,0.75279 -1.42902,1.1291 -2.1872,1.1291 -0.8895,0 -1.54563,-0.32552 -1.9685,-0.97657 -0.40826,-0.67139 -0.61243,-1.4953 -0.61243,-2.4719 0,-0.42722 0.0365,-0.90532 0.10946,-1.4343 0.0729,-0.54929 0.14571,-1.07825 0.21862,-1.58691 0.0875,-0.5086 0.1459,-0.83412 0.17505,-0.97654 0.11664,-0.71207 0.22591,-1.41397 0.32797,-2.10569 0.10206,-0.69175 0.15311,-1.25124 0.15311,-1.67846 0,-1.03757 -0.26243,-1.55643 -0.78735,-1.55643 -0.37912,0 -0.71449,0.26447 -1.0061,0.79345 -0.29161,0.50866 -0.52496,1.18005 -0.69992,2.01417 l -1.48728,9.79607 h -3.14959 l 0.24363,-1.60348 c -0.0312,0.0427 -0.0587,0.0981 -0.0906,0.13872 -0.67074,0.83414 -1.42893,1.40373 -2.27467,1.70894 l -0.32815,2.19727 c -0.12255,0.82947 -0.29104,1.52408 -0.4883,2.13431 h 34.80367 9.1106 v -29.68695 z m 82.416606,29.68695 h -3.24628 c -0.22821,0.44638 -0.46332,0.67328 -0.70543,0.67328 -0.23331,0 -0.41557,-0.10166 -0.54683,-0.30512 -0.0726,-0.11265 -0.12033,-0.23682 -0.15279,-0.36816 h -1.23986 c 0,0.0324 -0.007,0.0607 -0.007,0.0934 0,0.95619 0.23334,1.68862 0.69992,2.19722 0.46658,0.50866 1.0498,0.763 1.74974,0.763 0.90404,0 1.71337,-0.37639 2.42785,-1.12918 0.41417,-0.42458 0.7487,-1.08287 1.02078,-1.92447 z m -4.65133,0 h 1.40505 c 0.005,-0.0106 0.011,-0.0177 0.0165,-0.0286 0.23326,-0.46794 0.41552,-1.13933 0.54678,-2.01413 l 0.13126,-0.88499 c -1.42898,0.73241 -2.14346,1.59711 -2.14346,2.59402 0,0.11806 0.0178,0.22781 0.044,0.33374 z m -17.13372,0 h -3.136804 l -0.464416,3.05365 3.30262,-1.09858 z m 12.27788,-26.3347 c 0.48117,0 0.88948,0.24414 1.2248,0.73243 0.35001,0.46794 0.52503,1.03763 0.52503,1.70901 0,0.67141 -0.17502,1.24101 -0.52503,1.70895 -0.33532,0.46794 -0.74363,0.7019 -1.2248,0.7019 -0.48118,0 -0.88945,-0.23396 -1.22487,-0.7019 -0.33537,-0.46794 -0.50307,-1.03754 -0.50307,-1.70895 0,-0.67138 0.1677,-1.24107 0.50307,-1.70901 0.33542,-0.48829 0.74369,-0.73243 1.22487,-0.73243 z m 30.18346,8.08715 c -0.48114,0 -0.94775,0.48833 -1.39977,1.46489 -0.45203,0.97655 -0.81655,2.1463 -1.09361,3.50941 -0.27705,1.36313 -0.41557,2.5635 -0.41557,3.60109 0,0.97654 0.0802,1.63778 0.24058,1.98365 0.1604,0.32552 0.45201,0.48827 0.87483,0.48827 0.34996,0 0.69998,-0.27465 1.0499,-0.82399 0.34997,-0.56963 0.65617,-1.33257 0.91868,-2.28877 0.26247,-0.9766 0.45199,-2.05489 0.56859,-3.2349 -0.39367,-0.12206 -0.59049,-0.54924 -0.59049,-1.28167 0,-0.83417 0.22602,-1.38349 0.67804,-1.64798 -0.0292,-0.67139 -0.10209,-1.12918 -0.21876,-1.37331 -0.11665,-0.26447 -0.32076,-0.39669 -0.61242,-0.39669 z m -66.009952,0.15261 c -0.583225,0 -1.108201,0.47811 -1.574778,1.4343 -0.466577,0.93588 -0.831097,2.07521 -1.093593,3.41798 -0.262463,1.32244 -0.393669,2.49228 -0.393669,3.50951 0,1.01726 0.102007,1.66826 0.306171,1.95311 0.218705,0.28483 0.481218,0.42725 0.787422,0.42725 0.36452,0 0.721744,-0.23396 1.071705,-0.7019 0.36452,-0.4883 0.612425,-1.14953 0.743632,-1.98367 l 1.049901,-6.89693 c 0,-0.26449 -0.07296,-0.51881 -0.218755,-0.76294 -0.145814,-0.26449 -0.371782,-0.39671 -0.678036,-0.39671 z m 44.028522,0 c -0.58324,0 -1.10815,0.47811 -1.57478,1.4343 -0.46662,0.93588 -0.83118,2.07521 -1.09361,3.41798 -0.26249,1.32244 -0.3938,2.49228 -0.3938,3.50951 0,1.01726 0.10211,1.66826 0.30627,1.95311 0.21871,0.28483 0.48122,0.42725 0.78747,0.42725 0.33537,0 0.67794,-0.2137 1.02787,-0.64091 0.35001,-0.42727 0.59062,-1.00702 0.72183,-1.73945 l 1.11554,-7.2327 c 0,-0.24411 -0.073,-0.48825 -0.21875,-0.73238 -0.14582,-0.26449 -0.37184,-0.39671 -0.67804,-0.39671 z m -16.49153,0.30517 c -0.26242,0 -0.53218,0.13226 -0.80924,0.39675 -0.26246,0.26449 -0.49577,0.63062 -0.69992,1.09856 l -1.29046,8.54488 c 0.11665,0.46794 0.3937,0.70192 0.83118,0.70192 0.69989,0 1.27582,-0.45771 1.72784,-1.37323 0.46661,-0.91552 0.80203,-2.00406 1.00617,-3.26545 0.21873,-1.28171 0.32808,-2.47187 0.32808,-3.57048 0,-1.68862 -0.36457,-2.53295 -1.09365,-2.53295 z" />
    <path
       id="path47808"
       style="color:#000000;fill:#224bb5;stroke-width:0.166189;-inkscape-stroke:none;fill-opacity:1"
       d="m 106.3237,23.096885 c -0.73089,0.0017 -1.463,0.01363 -2.19613,0.03748 C 69.245001,23.919406 40.060957,49.50198 25.639404,79.308969 6.8023468,117.5316 5.2851703,164.4829 22.178326,203.65917 h 3.62848 C 8.7323546,165.13965 10.003421,118.51676 28.613995,80.762079 l 0.0027,-0.0052 0.0027,-0.0055 C 42.601461,51.852597 70.905781,27.191177 104.20759,26.444804 h 0.008 0.009 c 1.40058,-0.04577 2.79784,-0.0474 4.19075,-0.0061 h 0.002 c 20.89032,0.617743 40.7688,10.854397 55.16704,25.812232 34.076,35.811129 42.48791,90.899824 28.24637,137.240634 l -0.002,0.004 -0.002,0.004 c -1.44397,4.77353 -3.20144,9.51413 -5.24117,14.16142 h 3.61459 c 1.84651,-4.34328 3.45215,-8.75756 4.79495,-13.19577 14.56497,-47.3933 6.04213,-103.657118 -29.013,-140.496644 l -0.003,-0.003 -0.003,-0.0035 c -14.92998,-15.51442 -35.56506,-26.192988 -57.46268,-26.833732 -0.72821,-0.02132 -1.45781,-0.03148 -2.1887,-0.03035 z M 22.751314,204.9783 c 0.137588,0.30995 0.27983,0.61788 0.419695,0.92682 l 9.874876,14.46293 -1.16542,1.70686 c 2.959734,4.67838 6.224359,9.18518 9.807237,13.47872 0.05655,0.0688 0.116449,0.13517 0.173203,0.20381 h 4.357088 c -0.671306,-0.75863 -1.331477,-1.52571 -1.973101,-2.30632 l -0.004,-0.005 -0.0043,-0.004 C 36.983394,224.75159 31.048238,215.15647 26.402845,204.97829 Z m 163.253116,0 c -5.05586,11.17108 -11.80721,21.73783 -20.06641,30.77914 h 4.4579 c 3.59147,-4.15851 6.88006,-8.59518 9.85465,-13.23464 l -1.47122,-2.15475 10.50759,-15.38975 z m 0.87339,5.8677 -6.50119,9.52205 0.64712,0.94779 c 2.12226,-3.39698 4.07069,-6.89852 5.85407,-10.46984 z m -159.466156,3.60905 c 1.173364,2.16605 2.405825,4.30229 3.702485,6.40318 l 0.334655,-0.49018 z m 15.570155,22.62152 c 19.371804,22.49325 50.862175,35.87546 80.626241,28.31558 18.18766,-4.36913 33.55508,-14.7665 45.6403,-28.31558 h -4.53107 c -11.36486,12.01695 -25.47268,21.15548 -41.8909,25.09787 l -0.0106,0.003 -0.0103,0.003 C 95.444216,269.13549 66.17151,257.3908 47.415437,237.07653 Z" />
    <path
       id="path29444"
       style="color:#000000;fill:#003da5;fill-opacity:1;stroke-width:0.166189;-inkscape-stroke:none"
       d="m 47.900976,235.75744 h 1.968581 l -1.171686,-1.41547 c -0.966092,-1.06511 -1.910896,-2.14759 -2.816695,-3.25878 l -0.0018,-0.002 -0.0018,-0.002 c -0.97505,-1.17794 -1.922762,-2.37461 -2.848653,-3.58562 l -1.163608,-1.4057 h -0.349297 v -0.42195 l -0.742584,-0.89718 h 0.234277 C 36.513776,218.53169 32.646532,211.89938 29.396647,204.97853 H 27.68591 c 4.475265,9.66169 10.136043,18.78267 17.004918,27.08087 1.029809,1.26311 2.104374,2.49364 3.210198,3.69827 z" />
    <path
       id="path29440"
       style="color:#000000;fill:#224bb5;stroke-width:0.166189;-inkscape-stroke:none;stroke:#224bb5;stroke-opacity:1;fill-opacity:1"
       d="m 162.47478,237.07657 h -2.15089 v -0.029 c -10.57413,10.53368 -23.43458,18.50438 -38.25218,22.09206 l -0.005,0.002 -0.005,0.002 c -25.475055,6.53013 -52.570762,-3.73445 -70.779872,-22.06638 h -2.137645 c 18.549316,19.35685 46.694942,30.37461 73.296507,23.55673 15.63414,-3.78708 29.09302,-12.3214 40.03458,-23.55673 z" />
    <path
       id="path29436"
       style="color:#000000;fill:#003da5;fill-opacity:1;stroke-width:0.166189;-inkscape-stroke:none"
       d="m 184.17307,204.9783 h -1.69682 c -3.23169,6.93233 -7.12739,13.60826 -11.65051,19.78983 h 0.37867 l -0.71926,0.89266 v 0.42647 h -0.34377 l -7.79368,9.67018 h 1.38733 c 8.42831,-8.97416 15.29129,-19.5636 20.43804,-30.77914 z" />
    <path
       id="path29432"
       style="color:#000000;fill:#224bb5;stroke-width:0.166189;-inkscape-stroke:none;fill-opacity:1"
       d="m 106.04796,27.948021 c -0.69413,0.0017 -1.38945,0.01313 -2.08563,0.03601 C 70.894098,28.734761 43.122,53.246893 29.400071,81.843972 11.081558,119.3195 9.9510216,165.56045 27.087462,203.65917 h 1.696312 C 11.558456,165.87251 12.571646,119.77491 30.786423,82.515677 l 0.0018,-0.0027 0.0018,-0.0027 C 44.310836,54.332625 71.677432,30.253417 104.0066,29.522848 h 0.004 0.004 c 1.36024,-0.04485 2.71701,-0.04675 4.06938,-0.0065 h -0.002 c 20.28565,0.603151 39.53999,10.614619 53.48217,25.221877 32.9243,34.890806 41.02055,88.464585 27.28037,133.545885 v 0.002 0.002 c -1.55697,5.19003 -3.48607,10.34285 -5.75892,15.37243 h 1.69363 c 2.17639,-4.89155 4.0276,-9.89382 5.53762,-14.92678 v -0.002 c 13.88778,-45.56824 5.74181,-99.682133 -27.63711,-135.051931 l -0.002,-0.0018 -0.002,-0.0018 C 148.4884,38.810876 128.88277,28.592237 108.12694,27.977968 c -0.69172,-0.02049 -1.38469,-0.03021 -2.07882,-0.02915 z" />
    <g
       id="g47848"
       transform="matrix(0.16618943,0,0,0.16618943,-1228.9926,455.45115)"
       style="fill:none;stroke:#224bb5;stroke-opacity:1">
      <path
         sodipodi:type="star"
         style="opacity:1;fill:none;fill-opacity:1;stroke:#224bb5;stroke-width:56.6753;stroke-miterlimit:4;stroke-dasharray:none;stroke-opacity:1"
         id="path47838"
         inkscape:flatsided="false"
         sodipodi:sides="5"
         sodipodi:cx="30975"
         sodipodi:cy="-8200"
         sodipodi:r1="309.23291"
         sodipodi:r2="154.61646"
         sodipodi:arg1="-2.8797933"
         sodipodi:arg2="-2.2514747"
         inkscape:rounded="0"
         inkscape:randomized="0"
         transform="matrix(0.11671007,0,0,0.11671007,3959.6543,-1079.0142)"
         inkscape:transform-center-x="0.3155756"
         inkscape:transform-center-y="-1.5603214"
         d="m 30676.304,-8280.0354 201.393,-40.1242 81.119,-188.6495 100.394,179.1368 204.484,18.8531 -139.346,150.8369 45.259,200.3014 -186.515,-85.9145 -176.512,104.9399 24.073,-203.9349 z" />
      <path
         sodipodi:type="star"
         style="opacity:1;fill:none;fill-opacity:1;stroke:#224bb5;stroke-width:44.079;stroke-miterlimit:4;stroke-dasharray:none;stroke-opacity:1"
         id="path47840"
         inkscape:flatsided="false"
         sodipodi:sides="5"
         sodipodi:cx="30975"
         sodipodi:cy="-8200"
         sodipodi:r1="309.23291"
         sodipodi:r2="154.61646"
         sodipodi:arg1="-2.8797933"
         sodipodi:arg2="-2.2514747"
         inkscape:rounded="0"
         inkscape:randomized="0"
         transform="matrix(0.15006211,0,0,0.15006211,2976.164,-940.30159)"
         inkscape:transform-center-x="0.40563463"
         inkscape:transform-center-y="-2.0062216"
         d="m 30676.304,-8280.0354 201.393,-40.1242 81.119,-188.6495 100.394,179.1368 204.484,18.8531 -139.346,150.8369 45.259,200.3014 -186.515,-85.9145 -176.512,104.9399 24.073,-203.9349 z" />
      <path
         sodipodi:type="star"
         style="opacity:1;fill:none;fill-opacity:1;stroke:#224bb5;stroke-width:56.6753;stroke-miterlimit:4;stroke-dasharray:none;stroke-opacity:1"
         id="path47842"
         inkscape:flatsided="false"
         sodipodi:sides="5"
         sodipodi:cx="30975"
         sodipodi:cy="-8200"
         sodipodi:r1="309.23291"
         sodipodi:r2="154.61646"
         sodipodi:arg1="-2.8797933"
         sodipodi:arg2="-2.2514747"
         inkscape:rounded="0"
         inkscape:randomized="0"
         transform="matrix(0.11671007,0,0,0.11671007,3959.6543,-807.81632)"
         inkscape:transform-center-x="0.3155756"
         inkscape:transform-center-y="-1.5603214"
         d="m 30676.304,-8280.0354 201.393,-40.1242 81.119,-188.6495 100.394,179.1368 204.484,18.8531 -139.346,150.8369 45.259,200.3014 -186.515,-85.9145 -176.512,104.9399 24.073,-203.9349 z" />
      <path
         sodipodi:type="star"
         style="opacity:1;fill:none;fill-opacity:1;stroke:#224bb5;stroke-width:44.079;stroke-miterlimit:4;stroke-dasharray:none;stroke-opacity:1"
         id="path47844"
         inkscape:flatsided="false"
         sodipodi:sides="5"
         sodipodi:cx="30975"
         sodipodi:cy="-8200"
         sodipodi:r1="309.23291"
         sodipodi:r2="154.61646"
         sodipodi:arg1="-2.8797933"
         sodipodi:arg2="-2.2514747"
         inkscape:rounded="0"
         inkscape:randomized="0"
         transform="matrix(0.15006211,0,0,0.15006211,2910.0182,-669.10367)"
         inkscape:transform-center-x="0.40563463"
         inkscape:transform-center-y="-2.0062216"
         d="m 30676.304,-8280.0354 201.393,-40.1242 81.119,-188.6495 100.394,179.1368 204.484,18.8531 -139.346,150.8369 45.259,200.3014 -186.515,-85.9145 -176.512,104.9399 24.073,-203.9349 z" />
      <path
         sodipodi:type="star"
         style="opacity:1;fill:none;fill-opacity:1;stroke:#224bb5;stroke-width:44.079;stroke-miterlimit:4;stroke-dasharray:none;stroke-opacity:1"
         id="path47846"
         inkscape:flatsided="false"
         sodipodi:sides="5"
         sodipodi:cx="30975"
         sodipodi:cy="-8200"
         sodipodi:r1="309.23291"
         sodipodi:r2="154.61646"
         sodipodi:arg1="-2.8797933"
         sodipodi:arg2="-2.2514747"
         inkscape:rounded="0"
         inkscape:randomized="0"
         transform="matrix(0.15006211,0,0,0.15006211,2949.7057,-397.90575)"
         inkscape:transform-center-x="0.40563463"
         inkscape:transform-center-y="-2.0062216"
         d="m 30676.304,-8280.0354 201.393,-40.1242 81.119,-188.6495 100.394,179.1368 204.484,18.8531 -139.346,150.8369 45.259,200.3014 -186.515,-85.9145 -176.512,104.9399 24.073,-203.9349 z" />
    </g>
    <g
       id="g47798"
       transform="matrix(0.16618943,0,0,0.16618943,-1228.9926,455.45115)"
       style="fill:none;stroke:#224bb5;stroke-opacity:1">
      <path
         sodipodi:type="star"
         style="opacity:1;fill:none;fill-opacity:1;stroke:#224bb5;stroke-width:56.6753;stroke-miterlimit:4;stroke-dasharray:none;stroke-opacity:1"
         id="path47788"
         inkscape:flatsided="false"
         sodipodi:sides="5"
         sodipodi:cx="30975"
         sodipodi:cy="-8200"
         sodipodi:r1="309.23291"
         sodipodi:r2="154.61646"
         sodipodi:arg1="-2.8797933"
         sodipodi:arg2="-2.2514747"
         inkscape:rounded="0"
         inkscape:randomized="0"
         transform="matrix(-0.11671007,0,0,0.11671007,12109.804,-1079.0142)"
         inkscape:transform-center-x="-0.31564009"
         inkscape:transform-center-y="-1.5603214"
         d="m 30676.304,-8280.0354 201.393,-40.1242 81.119,-188.6495 100.394,179.1368 204.484,18.8531 -139.346,150.8369 45.259,200.3014 -186.515,-85.9145 -176.512,104.9399 24.073,-203.9349 z" />
      <path
         sodipodi:type="star"
         style="opacity:1;fill:none;fill-opacity:1;stroke:#224bb5;stroke-width:44.079;stroke-miterlimit:4;stroke-dasharray:none;stroke-opacity:1"
         id="path47790"
         inkscape:flatsided="false"
         sodipodi:sides="5"
         sodipodi:cx="30975"
         sodipodi:cy="-8200"
         sodipodi:r1="309.23291"
         sodipodi:r2="154.61646"
         sodipodi:arg1="-2.8797933"
         sodipodi:arg2="-2.2514747"
         inkscape:rounded="0"
         inkscape:randomized="0"
         transform="matrix(-0.15006211,0,0,0.15006211,13093.294,-940.30158)"
         inkscape:transform-center-x="-0.40539912"
         inkscape:transform-center-y="-2.0062216"
         d="m 30676.304,-8280.0354 201.393,-40.1242 81.119,-188.6495 100.394,179.1368 204.484,18.8531 -139.346,150.8369 45.259,200.3014 -186.515,-85.9145 -176.512,104.9399 24.073,-203.9349 z" />
      <path
         sodipodi:type="star"
         style="opacity:1;fill:none;fill-opacity:1;stroke:#224bb5;stroke-width:56.6753;stroke-miterlimit:4;stroke-dasharray:none;stroke-opacity:1"
         id="path47792"
         inkscape:flatsided="false"
         sodipodi:sides="5"
         sodipodi:cx="30975"
         sodipodi:cy="-8200"
         sodipodi:r1="309.23291"
         sodipodi:r2="154.61646"
         sodipodi:arg1="-2.8797933"
         sodipodi:arg2="-2.2514747"
         inkscape:rounded="0"
         inkscape:randomized="0"
         transform="matrix(-0.11671007,0,0,0.11671007,12109.804,-807.81628)"
         inkscape:transform-center-x="-0.31564009"
         inkscape:transform-center-y="-1.5603214"
         d="m 30676.304,-8280.0354 201.393,-40.1242 81.119,-188.6495 100.394,179.1368 204.484,18.8531 -139.346,150.8369 45.259,200.3014 -186.515,-85.9145 -176.512,104.9399 24.073,-203.9349 z" />
      <path
         sodipodi:type="star"
         style="opacity:1;fill:none;fill-opacity:1;stroke:#224bb5;stroke-width:44.079;stroke-miterlimit:4;stroke-dasharray:none;stroke-opacity:1"
         id="path47794"
         inkscape:flatsided="false"
         sodipodi:sides="5"
         sodipodi:cx="30975"
         sodipodi:cy="-8200"
         sodipodi:r1="309.23291"
         sodipodi:r2="154.61646"
         sodipodi:arg1="-2.8797933"
         sodipodi:arg2="-2.2514747"
         inkscape:rounded="0"
         inkscape:randomized="0"
         transform="matrix(-0.15006211,0,0,0.15006211,13159.44,-669.10367)"
         inkscape:transform-center-x="-0.40559912"
         inkscape:transform-center-y="-2.0062216"
         d="m 30676.304,-8280.0354 201.393,-40.1242 81.119,-188.6495 100.394,179.1368 204.484,18.8531 -139.346,150.8369 45.259,200.3014 -186.515,-85.9145 -176.512,104.9399 24.073,-203.9349 z" />
      <path
         sodipodi:type="star"
         style="opacity:1;fill:none;fill-opacity:1;stroke:#224bb5;stroke-width:44.079;stroke-miterlimit:4;stroke-dasharray:none;stroke-opacity:1"
         id="path47796"
         inkscape:flatsided="false"
         sodipodi:sides="5"
         sodipodi:cx="30975"
         sodipodi:cy="-8200"
         sodipodi:r1="309.23291"
         sodipodi:r2="154.61646"
         sodipodi:arg1="-2.8797933"
         sodipodi:arg2="-2.2514747"
         inkscape:rounded="0"
         inkscape:randomized="0"
         transform="matrix(-0.15006211,0,0,0.15006211,13119.753,-397.90575)"
         inkscape:transform-center-x="-0.40609912"
         inkscape:transform-center-y="-2.0062216"
         d="m 30676.304,-8280.0354 201.393,-40.1242 81.119,-188.6495 100.394,179.1368 204.484,18.8531 -139.346,150.8369 45.259,200.3014 -186.515,-85.9145 -176.512,104.9399 24.073,-203.9349 z" />
    </g>
    <path
       id="path47834"
       style="fill:none;fill-opacity:1;stroke:none;stroke-width:4.97091;stroke-miterlimit:4;stroke-dasharray:none;stroke-opacity:1"
       d="M 52.367184,87.568118 C 66.288624,67.359201 83.901795,58.21963 106.10212,57.434152 c 32.70031,0.738961 54.73319,33.706939 64.08394,49.888568"
       sodipodi:nodetypes="ccc" />
    <path
       sodipodi:type="star"
       style="opacity:1;fill:none;fill-opacity:1;stroke:#224bb5;stroke-width:56.6753;stroke-miterlimit:4;stroke-dasharray:none;stroke-opacity:1"
       id="path47850"
       inkscape:flatsided="false"
       sodipodi:sides="5"
       sodipodi:cx="30975"
       sodipodi:cy="-8200"
       sodipodi:r1="309.23291"
       sodipodi:r2="154.61646"
       sodipodi:arg1="-2.8797933"
       sodipodi:arg2="-2.2514747"
       inkscape:rounded="0"
       inkscape:randomized="0"
       transform="matrix(0.01939598,0,0,0.01939598,-515.82485,404.9709)"
       inkscape:transform-center-x="-1.5607406"
       inkscape:transform-center-y="-0.31558665"
       d="m 30676.304,-8280.0354 201.393,-40.1242 81.119,-188.6495 100.394,179.1368 204.484,18.8531 -139.346,150.8369 45.259,200.3014 -186.515,-85.9145 -176.512,104.9399 24.073,-203.9349 z" />
    <path
       sodipodi:type="star"
       style="opacity:1;fill:none;fill-opacity:1;stroke:#224bb5;stroke-width:44.079;stroke-miterlimit:4;stroke-dasharray:none;stroke-opacity:1"
       id="path47852"
       inkscape:flatsided="false"
       sodipodi:sides="5"
       sodipodi:cx="30975"
       sodipodi:cy="-8200"
       sodipodi:r1="309.23291"
       sodipodi:r2="154.61646"
       sodipodi:arg1="-2.8797933"
       sodipodi:arg2="-2.2514747"
       inkscape:rounded="0"
       inkscape:randomized="0"
       transform="matrix(0.02493874,0,0,0.02493874,-706.90708,439.38125)"
       inkscape:transform-center-x="-2.0065227"
       inkscape:transform-center-y="-0.40562708"
       d="m 30676.304,-8280.0354 201.393,-40.1242 81.119,-188.6495 100.394,179.1368 204.484,18.8531 -139.346,150.8369 45.259,200.3014 -186.515,-85.9145 -176.512,104.9399 24.073,-203.9349 z" />
    <path
       sodipodi:type="star"
       style="opacity:1;fill:none;fill-opacity:1;stroke:#224bb5;stroke-width:56.6753;stroke-miterlimit:4;stroke-dasharray:none;stroke-opacity:1"
       id="path47854"
       inkscape:flatsided="false"
       sodipodi:sides="5"
       sodipodi:cx="30975"
       sodipodi:cy="-8200"
       sodipodi:r1="309.23291"
       sodipodi:r2="154.61646"
       sodipodi:arg1="-2.8797933"
       sodipodi:arg2="-2.2514747"
       inkscape:rounded="0"
       inkscape:randomized="0"
       transform="matrix(0.01939598,0,0,0.01939598,-470.75464,404.9709)"
       inkscape:transform-center-x="-1.5606406"
       inkscape:transform-center-y="-0.31558665"
       d="m 30676.304,-8280.0354 201.393,-40.1242 81.119,-188.6495 100.394,179.1368 204.484,18.8531 -139.346,150.8369 45.259,200.3014 -186.515,-85.9145 -176.512,104.9399 24.073,-203.9349 z" />
    <path
       sodipodi:type="star"
       style="opacity:1;fill:none;fill-opacity:1;stroke:#224bb5;stroke-width:44.079;stroke-miterlimit:4;stroke-dasharray:none;stroke-opacity:1"
       id="path47856"
       inkscape:flatsided="false"
       sodipodi:sides="5"
       sodipodi:cx="30975"
       sodipodi:cy="-8200"
       sodipodi:r1="309.23291"
       sodipodi:r2="154.61646"
       sodipodi:arg1="-2.8797933"
       sodipodi:arg2="-2.2514747"
       inkscape:rounded="0"
       inkscape:randomized="0"
       transform="matrix(0.02493874,0,0,0.02493874,-664.85989,453.39699)"
       inkscape:transform-center-x="-2.0063227"
       inkscape:transform-center-y="-0.40563503"
       d="m 30676.304,-8280.0354 201.393,-40.1242 81.119,-188.6495 100.394,179.1368 204.484,18.8531 -139.346,150.8369 45.259,200.3014 -186.515,-85.9145 -176.512,104.9399 24.073,-203.9349 z" />
    <path
       sodipodi:type="star"
       style="opacity:1;fill:none;fill-opacity:1;stroke:#224bb5;stroke-width:44.079;stroke-miterlimit:4;stroke-dasharray:none;stroke-opacity:1"
       id="path47858"
       inkscape:flatsided="false"
       sodipodi:sides="5"
       sodipodi:cx="30975"
       sodipodi:cy="-8200"
       sodipodi:r1="309.23291"
       sodipodi:r2="154.61646"
       sodipodi:arg1="-2.8797933"
       sodipodi:arg2="-2.2514747"
       inkscape:rounded="0"
       inkscape:randomized="0"
       transform="matrix(0.02493874,0,0,0.02493874,-623.91191,439.93089)"
       inkscape:transform-center-x="-2.0065227"
       inkscape:transform-center-y="-0.40562708"
       d="m 30676.304,-8280.0354 201.393,-40.1242 81.119,-188.6495 100.394,179.1368 204.484,18.8531 -139.346,150.8369 45.259,200.3014 -186.515,-85.9145 -176.512,104.9399 24.073,-203.9349 z" />
    <path
       id="path47910"
       style="fill:none;fill-opacity:1;stroke:none;stroke-width:4.97091;stroke-miterlimit:4;stroke-dasharray:none;stroke-opacity:1"
       d="M 52.367184,87.568118 C 66.288624,67.359201 83.901795,58.21963 106.10212,57.434152 c 32.70031,0.738961 54.73319,33.706939 64.08394,49.888568"
       sodipodi:nodetypes="ccc" />
    <g
       aria-label="Champlain"
       transform="matrix(0.16618943,0,0,0.16618943,-571.6578,557.6069)"
       id="text47938"
       style="font-size:167.57px;line-height:1.25;font-family:Lobster;-inkscape-font-specification:'Lobster, Normal';white-space:pre;fill:#224bb5;fill-opacity:1">
      <path
         d="m 3811.7513,-2895.746 q -12.7129,14.0332 -25.7543,14.2026 -13.0414,0.1693 -29.4342,-14.6812 -13.0398,-11.8128 -24.129,-29.7723 -10.9767,-18.0836 -12.8816,-37.4456 -1.9167,-19.5986 11.6962,-34.6254 8.4377,-9.3142 17.7111,-11.3142 9.2733,-2.0001 17.7182,5.6501 5.3401,4.8377 6.5322,9.7614 1.068,4.8113 -2.9821,9.2821 -4.0501,4.4708 -9.6416,4.1537 0.9074,-3.248 -0.8707,-8.0242 -1.778,-4.7762 -5.3795,-8.0388 -3.3531,-3.0376 -7.1518,-3.0873 -3.6863,-0.1739 -7.2864,3.8001 -5.9626,6.582 -2.297,20.7558 3.5414,14.0612 13.827,30.1622 10.3981,15.9768 23.0653,27.4522 9.4384,8.5502 17.331,9.8214 7.8926,1.2712 15.5428,-7.1736 6.6377,-7.3271 9.034,-16.4616 2.3962,-9.1345 0.4853,-19.0054 l 3.8294,-1.7313 q 5.0113,10.1924 4.7146,21.0028 -0.2968,10.8103 -4.1132,20.0149 -3.9406,9.0921 -9.5657,15.3016 z"
         id="path1046"
         style="fill:#224bb5;fill-opacity:1" />
      <path
         d="m 3885.7733,-2968.1195 q -7.8506,6.5463 -15.0169,5.5401 -7.145,-1.2422 -12.2961,-7.4197 -2.2536,-2.7027 -4.4003,-6.5854 -2.254,-4.0114 -4.2934,-7.7655 -1.9107,-3.8613 -2.4045,-4.9768 -2.7265,-5.363 -5.4743,-10.4899 -2.7478,-5.1269 -5.0015,-7.8296 -5.473,-6.5636 -10.1062,-2.7003 -3.3461,2.7902 -3.1299,8.2827 0.109,5.3637 2.9645,11.9281 l 25.6967,48.6095 -18.5325,15.4534 -54.3131,-103.0753 16.901,-18.4566 20.0937,38.2269 q 0.4253,-12.5729 9.048,-19.763 6.5636,-5.473 13.4294,-5.089 6.8658,0.3841 12.9827,7.7199 3.1122,3.7323 6.0746,9.1166 2.8552,5.2556 6.6552,13.2143 2.2972,4.8482 4.6157,9.4603 2.34,4.3761 4.1643,6.564 2.1463,2.574 4.4851,3.0238 2.3387,0.4499 5.1701,-1.9111 3.8609,-3.2194 3.9239,-7.8538 -0.044,-4.763 -2.557,-12.4861 l 5.4053,-4.5072 q 7.0428,18.1274 4.8146,28.2764 -2.2068,9.9129 -8.8991,15.4933 z"
         id="path1048"
         style="fill:#224bb5;fill-opacity:1" />
      <path
         d="m 3921.5524,-2993.9388 q -8.3873,4.5698 -17.1056,1.8777 -8.7184,-2.6921 -15.3727,-14.9052 -5.9329,-10.8888 -8.1597,-25.1327 -2.1598,-14.4711 1.885,-27.3614 4.1117,-13.1175 16.0305,-19.6116 6.033,-3.2871 10.0984,-2.8305 4.0653,0.4566 5.9093,3.841 l 0.5612,1.03 -2.6306,-8.6807 21.1891,-11.5449 16.6644,55.8021 q 0.614,2.5279 1.9769,5.0294 3.4475,6.3273 9.4805,3.0401 4.1201,-2.2448 4.9785,-7.6741 1.0055,-5.5094 -0.596,-12.6516 l 6.1801,-3.3673 q 3.2143,18.8582 -1.7519,29.0064 -4.8993,9.9209 -12.9924,14.3304 -6.1801,3.3673 -11.8499,2.0675 -5.6028,-1.5272 -9.9463,-7.7479 -0.9801,8.358 -4.1929,15.07 -3.1458,6.4848 -10.3559,10.4133 z m 1.7877,-19.4845 q 3.6786,-2.0043 5.3661,-7.3128 1.7545,-5.5359 -0.2083,-12.2904 l -11.0561,-37.1033 q -1.0423,-1.9129 -3.4758,-2.8769 -2.5137,-1.1112 -5.6038,0.5724 -5.8858,3.207 -6.8264,12.6884 -1.0207,9.3342 1.6221,20.489 2.5627,11.0076 6.5713,18.3649 4.0087,7.3573 7.1912,8.2949 3.3296,0.8575 6.4197,-0.8262 z"
         id="path1050"
         style="fill:#224bb5;fill-opacity:1" />
      <path
         d="m 4081.0505,-3047.2076 q -10.0918,1.6249 -15.7419,-2.8968 -5.5113,-4.7136 -6.7899,-12.6547 -0.5593,-3.4743 -0.4247,-7.9089 0.108,-4.6 0.2693,-8.8692 0.3268,-4.2958 0.4712,-5.5071 0.3912,-6.0035 0.6437,-11.8149 0.2524,-5.8114 -0.3069,-9.2856 -1.3585,-8.4374 -7.3143,-7.4785 -4.3014,0.6925 -6.9177,5.5266 -2.6429,4.6688 -3.536,11.7714 l -2.6997,54.9173 -23.8233,3.8357 2.8876,-59.0211 q 0.1767,-2.0652 -0.1696,-4.2159 -1.172,-7.2793 -6.1352,-6.4802 -4.6323,0.7458 -7.414,5.6066 -2.6428,4.6687 -3.5094,11.9368 l -2.6996,54.9173 -23.8233,3.8356 4.2184,-85.5432 23.8233,-3.8356 -0.4347,8.8959 q 6.9191,-10.7885 18.6653,-12.6797 14.5587,-2.344 19.331,11.4843 6.8351,-15.5274 20.732,-17.7648 8.4374,-1.3585 14.1464,2.4747 5.709,3.8333 7.2273,13.2633 0.7724,4.7978 0.5733,10.94 -0.2258,5.9769 -1.0181,14.7606 -0.4978,5.3417 -0.8568,10.4913 -0.2202,4.9576 0.2326,7.77 0.5328,3.3088 2.3147,4.8889 1.782,1.5801 5.4216,0.9941 4.9632,-0.799 7.3818,-4.7527 2.3919,-4.1191 4.1712,-12.0434 l 6.9484,-1.1187 q -3.1913,19.1839 -10.2856,26.7758 -6.9556,7.3998 -15.5584,8.7848 z"
         id="path1052"
         style="fill:#224bb5;fill-opacity:1" />
      <path
         d="m 4137.8521,-3132.7512 23.5482,5.2675 -5.3599,11.6793 q 9.7493,-5.2027 20.7057,-2.7519 9.1576,2.0485 13.2007,9.3061 4.043,7.2577 0.9703,20.9941 -2.8898,12.9188 -9.6139,25.3233 -6.6875,12.241 -17.7666,19.5502 -11.0426,7.1458 -25.7602,3.8536 -10.4658,-2.3411 -12.583,-8.9963 l -17.4289,37.9989 -26.0097,0.3635 z m -1.9626,77.8613 q 7.8494,1.7558 14.5648,-4.4691 6.879,-6.1882 11.4363,-15.8149 4.7575,-9.7536 6.7328,-18.5841 3.0361,-13.5729 -5.1404,-15.4019 -2.9435,-0.6584 -6.5261,0.7724 -3.419,1.4675 -6.5497,4.7165 l -19.8905,43.6299 q 0.4669,4.0538 5.3728,5.1512 z"
         id="path1054"
         style="fill:#224bb5;fill-opacity:1" />
      <path
         d="m 4196.5114,-3020.7145 q -7.2977,-3.3823 -9.7447,-10.0573 -2.295,-6.6045 1.9329,-15.7266 1.7617,-3.8008 5.7966,-9.3184 l 51.571,-68.6291 23.9103,7.3883 -55.5354,73.9946 q -1.6651,1.9987 -2.8631,4.5832 -1.4093,3.0407 -0.6752,5.0432 0.9566,1.9209 4.3014,3.4712 4.409,2.0435 9.901,0.1563 5.5625,-2.0392 9.983,-7.1933 l 6.3854,2.9595 q -13.2355,13.8124 -24.8017,15.6547 -11.4956,1.6903 -20.1615,-2.3263 z"
         id="path1056"
         style="fill:#224bb5;fill-opacity:1" />
      <path
         d="m 4239.2376,-2998.598 q -7.762,-5.5662 -9.1283,-14.5878 -1.3662,-9.0216 6.7388,-20.3242 7.2263,-10.077 19.0851,-18.2754 12.0928,-8.2369 25.4595,-10.1989 13.6005,-2.0006 24.6307,5.9092 5.5832,4.0037 6.9396,7.8632 1.3564,3.8595 -0.8896,6.9916 l -0.6835,0.9532 6.6734,-6.1432 19.6094,14.0619 -43.0063,39.2688 q -2.0094,1.6521 -3.6695,3.9671 -4.199,5.8555 1.3842,9.8592 3.8129,2.7343 9.0753,1.1467 5.3987,-1.4898 11.1342,-6.0374 l 5.7193,4.1014 q -15.5848,11.0938 -26.8829,11.0339 -11.0643,-0.099 -18.554,-5.4694 -5.7193,-4.1014 -7.0139,-9.7723 -1.0608,-5.7096 2.6527,-12.3257 -7.9529,2.7513 -15.3941,2.7764 -7.2075,-0.013 -13.8801,-4.7983 z m 18.3237,-6.8617 q 3.4044,2.4412 8.9186,1.6528 5.748,-0.8269 10.9773,-5.5312 l 28.6057,-26.0885 q 1.2695,-1.7703 1.0795,-4.3809 -0.092,-2.7468 -2.9519,-4.7975 -5.4471,-3.9061 -14.3943,-0.6307 -8.8496,3.1393 -17.7458,10.3692 -8.7985,7.0937 -13.6811,13.9025 -4.8826,6.8087 -4.3433,10.0823 0.6756,3.3713 3.5353,5.422 z"
         id="path1058"
         style="fill:#224bb5;fill-opacity:1" />
      <path
         d="m 4378.8374,-3005.0139 q -3.9551,-3.8647 -4.018,-9.3149 -0.063,-5.4502 3.8018,-9.4052 3.8647,-3.9551 9.3149,-4.0181 5.5673,-0.1827 9.5224,3.682 3.955,3.8648 3.9008,9.4348 0.1828,5.5673 -3.6819,9.5223 -3.8648,3.9551 -9.4348,3.9009 -5.4502,0.063 -9.4052,-3.8018 z m -73.7335,59.1525 q -5.7528,-5.6215 -5.8349,-12.7304 0.038,-6.9918 7.0646,-14.1828 2.9278,-2.9963 8.5712,-6.8534 l 45.7433,-30.5082 17.2584,16.8643 -48.4479,32.317 q -2.2361,1.3293 -4.227,3.3667 -2.3423,2.397 -2.3176,4.5297 0.2615,2.1299 2.8983,4.7064 3.4756,3.3963 9.2826,3.4478 5.9241,-0.068 11.8099,-3.4544 l 5.0337,4.9188 q -17.0827,8.6106 -28.6015,6.4922 -11.4016,-2.2383 -18.2331,-8.9137 z"
         id="path1060"
         style="fill:#224bb5;fill-opacity:1" />
      <path
         d="m 4362.4034,-2882.2295 q -5.6569,-6.8465 -4.0848,-13.3623 1.5722,-6.5159 7.902,-11.7458 2.7128,-2.2414 6.6051,-4.3706 4.0216,-2.2359 7.7848,-4.2584 3.8699,-1.8933 4.9876,-2.3821 5.3752,-2.7022 10.5144,-5.4269 5.1393,-2.7247 7.8521,-4.9661 6.5882,-5.4435 2.7457,-10.094 -2.775,-3.3586 -8.2684,-3.1672 -5.3642,0.085 -11.9414,2.9107 l -48.7248,25.4774 -15.3697,-18.6019 75.9039,-39.674 15.3698,18.602 -7.8915,4.1292 q 12.5708,0.4819 19.722,9.1369 5.4434,6.5882 5.0284,13.4522 -0.415,6.8639 -7.7783,12.9478 -3.7462,3.0953 -9.1438,6.0335 -5.2685,2.8314 -13.2442,6.5955 -4.8585,2.2753 -9.481,4.5731 -4.3866,2.3202 -6.5827,4.1347 -2.5836,2.1346 -3.044,4.4713 -0.4604,2.3367 1.8878,5.1787 2.5616,3.1003 4.2973,3.6225 -7.2286,4.6684 -13.896,3.4389 -6.5607,-1.1003 -11.1503,-6.6551 z"
         id="path1062"
         style="fill:#224bb5;fill-opacity:1" />
    </g>
    <path
       style="color:#000000;fill:#224bb5;fill-opacity:1;stroke-width:0.166189;-inkscape-stroke:none"
       d="m 161.40341,225.66532 h 7.04357 l -6.8579,8.50908 z"
       id="path30621" />
    <path
       style="color:#000000;fill:#224bb5;fill-opacity:1;stroke-width:0.166189;-inkscape-stroke:none"
       d="m 43.577375,225.66532 h 7.034483 v 8.49805 z"
       id="path30619" />
    <path
       style="color:#000000;fill:#224bb5;fill-opacity:1;stroke-width:0.166189;-inkscape-stroke:none"
       d="m 170.39717,204.97832 h 18.88977 l -10.50759,15.38973 10.50759,15.3894 h -27.02721 l 7.79369,-9.67014 h 0.34375 v -0.42653 l 0.71928,-0.8926 h -0.71928 z"
       id="path30617" />
    <path
       style="color:#000000;fill:#224bb5;fill-opacity:1;stroke-width:0.166189;-inkscape-stroke:none"
       d="m 22.276876,204.97827 h 18.889772 v 19.78986 h -0.742667 l 0.742667,0.89716 v 0.42197 h 0.349264 l 8.004348,9.67014 H 22.276876 L 32.784469,220.368 Z"
       id="path30615" />
  </g>
  <metadata
     id="metadata38758">
    <rdf:RDF>
      <cc:Work
         rdf:about="">
        <dc:title>Draft Logo</dc:title>
      </cc:Work>
    </rdf:RDF>
  </metadata>
</svg>
